<svg preserveAspectRatio="none" width="100%" height="100%" overflow="visible" style="display: block;" viewBox="0 0 13.1992 13.1992" fill="none" xmlns="http://www.w3.org/2000/svg">
<path id="Union" d="M6.59961 0C6.93098 2.57327e-07 7.19922 0.268239 7.19922 0.599609V6H12.5996C12.931 6 13.1992 6.26824 13.1992 6.59961C13.1992 6.93098 12.931 7.19922 12.5996 7.19922H7.19922V12.5996C7.19922 12.931 6.93098 13.1992 6.59961 13.1992C6.26824 13.1992 6 12.931 6 12.5996V7.19922H0.599609C0.268239 7.19922 2.97269e-07 6.93098 0 6.59961C2.57327e-07 6.26824 0.268239 6 0.599609 6H6V0.599609C6 0.268239 6.26824 2.97269e-07 6.59961 0Z" fill="var(--fill-0, black)"/>
</svg>
