<svg preserveAspectRatio="none" width="100%" height="100%" overflow="visible" style="display: block;" viewBox="0 0 16 16" fill="none" xmlns="http://www.w3.org/2000/svg">
<g id="add">
<g id="Union">
<path d="M8 4.40039C7.66863 4.40039 7.40039 4.66863 7.40039 5V7.40039H5C4.66863 7.40039 4.40039 7.66863 4.40039 8C4.40039 8.33137 4.66863 8.59961 5 8.59961H7.40039V11C7.40039 11.3314 7.66863 11.5996 8 11.5996C8.33137 11.5996 8.59961 11.3314 8.59961 11V8.59961H11C11.3314 8.59961 11.5996 8.33137 11.5996 8C11.5996 7.66863 11.3314 7.40039 11 7.40039H8.59961V5C8.59961 4.66863 8.33137 4.40039 8 4.40039Z" fill="var(--fill-0, #000001)"/>
<path d="M12.5 1.5C13.6046 1.5 14.5 2.39543 14.5 3.5V12.5C14.5 13.5357 13.7128 14.387 12.7041 14.4893L12.5 14.5H3.5L3.2959 14.4893C2.35435 14.3938 1.6062 13.6457 1.51074 12.7041L1.5 12.5V3.5C1.5 2.39543 2.39543 1.5 3.5 1.5H12.5ZM3.5 2.7002C3.05817 2.7002 2.7002 3.05817 2.7002 3.5V12.5C2.7002 12.9418 3.05817 13.2998 3.5 13.2998H12.5C12.9418 13.2998 13.2998 12.9418 13.2998 12.5V3.5C13.2998 3.05817 12.9418 2.7002 12.5 2.7002H3.5Z" fill="var(--fill-0, #000001)"/>
</g>
</g>
</svg>
