<svg preserveAspectRatio="none" width="100%" height="100%" overflow="visible" style="display: block;" viewBox="0 0 14.2452 13.7995" fill="none" xmlns="http://www.w3.org/2000/svg">
<path id="Union" d="M11.5808 8.85744C11.7058 8.80457 11.7409 8.80459 11.8659 8.85744C11.9704 8.90166 12.1885 9.24115 12.6237 9.91995C12.6802 10.0081 12.7387 10.086 12.7985 10.1504C12.9014 10.2612 13.0413 10.3672 13.2028 10.4668C13.8405 10.86 14.1598 11.0569 14.2058 11.1631C14.2583 11.2849 14.2583 11.3324 14.2058 11.4541C14.1596 11.5604 13.8403 11.7574 13.2028 12.1504C13.0413 12.2501 12.9014 12.3561 12.7985 12.4669C12.7387 12.5313 12.6802 12.6092 12.6237 12.6973C12.1885 13.3761 11.9704 13.7156 11.8659 13.7598C11.741 13.8127 11.7057 13.8127 11.5808 13.7598C11.4762 13.7156 11.2582 13.3761 10.8229 12.6973C10.7664 12.6092 10.7079 12.5313 10.6481 12.4669C10.5453 12.3561 10.4054 12.2501 10.2438 12.1504C9.60629 11.7574 9.28701 11.5604 9.24091 11.4541C9.18837 11.3324 9.18837 11.2849 9.24091 11.1631C9.28684 11.0569 9.60607 10.86 10.2438 10.4668C10.4054 10.3672 10.5453 10.2612 10.6481 10.1504C10.708 10.086 10.7664 10.0081 10.8229 9.91995C11.2582 9.24112 11.4762 8.90166 11.5808 8.85744ZM3.16181 6.58593C3.28291 6.52776 3.35814 6.52782 3.47919 6.58593C3.59455 6.64134 3.77192 7.00736 4.12665 7.73926C4.28414 8.0642 4.45936 8.35017 4.64619 8.53712C4.83305 8.72398 5.11909 8.89913 5.44404 9.05666C6.17579 9.41132 6.54264 9.58875 6.59833 9.70413C6.65653 9.82528 6.65653 9.90133 6.59833 10.0225C6.54246 10.1379 6.17556 10.3154 5.44404 10.67C5.11911 10.8275 4.83304 11.0026 4.64619 11.1895C4.45939 11.3764 4.28412 11.6625 4.12665 11.9874C3.77196 12.7192 3.59454 13.0853 3.47919 13.1407C3.35817 13.1988 3.28289 13.1988 3.16181 13.1407C3.04645 13.0852 2.86902 12.7191 2.51435 11.9874C2.35683 11.6623 2.18169 11.3764 1.99482 11.1895C1.80791 11.0026 1.52202 10.8275 1.19697 10.67C0.46594 10.3156 0.0999023 10.1379 0.0436465 10.0225C-0.0145488 9.90133 -0.0145488 9.82528 0.0436465 9.70413C0.0997264 9.58874 0.465712 9.41108 1.19697 9.05666C1.52204 8.89909 1.8079 8.72404 1.99482 8.53712C2.18171 8.35018 2.35681 8.06431 2.51435 7.73926C2.869 7.00752 3.04644 6.64155 3.16181 6.58593ZM8.654 0.045811C8.77351 -0.0152131 8.86843 -0.0153276 8.98798 0.045811C9.10881 0.107827 9.26592 0.491088 9.57978 1.25676C9.82549 1.85618 10.1185 2.42047 10.4411 2.74311C10.7637 3.0656 11.3273 3.35881 11.9265 3.60445C12.6922 3.91835 13.0754 4.07542 13.1374 4.19625C13.1986 4.31592 13.1986 4.41057 13.1374 4.53024C13.0753 4.65106 12.692 4.80823 11.9265 5.12204C11.3273 5.36769 10.7637 5.66087 10.4411 5.98338C10.1185 6.30601 9.82549 6.87031 9.57978 7.46973C9.2659 8.23544 9.10881 8.61875 8.98798 8.68068C8.86844 8.74181 8.77348 8.74167 8.654 8.68068C8.53317 8.61889 8.3761 8.23547 8.0622 7.46973C7.81649 6.87031 7.52253 6.30601 7.1999 5.98338C6.87724 5.66089 6.31372 5.36767 5.71454 5.12204C4.94868 4.80809 4.56548 4.65108 4.50361 4.53024C4.44242 4.41059 4.44244 4.31589 4.50361 4.19625C4.5654 4.0754 4.94858 3.91843 5.71454 3.60445C6.3137 3.35883 6.87722 3.06558 7.1999 2.74311C7.52253 2.42047 7.81649 1.85618 8.0622 1.25676C8.37613 0.490939 8.53316 0.107603 8.654 0.045811Z" fill="var(--fill-0, #000001)"/>
</svg>
