<svg preserveAspectRatio="none" width="100%" height="100%" overflow="visible" style="display: block;" viewBox="0 0 13 13" fill="none" xmlns="http://www.w3.org/2000/svg">
<path id="Vector" d="M13 8.84669L8.81814 7.44104C8.81814 7.44104 9.13957 6.95971 9.48221 6.01663C9.82485 5.07355 9.87462 4.55551 9.87462 4.55551L7.16774 4.53348V3.60835L10.4457 3.5855V2.93204H7.16693V1.44399H5.56141V2.93204H2.5021V3.5855L5.56141 3.56348V4.55551H3.10907V5.07355H8.15896C8.15896 5.07355 8.10348 5.49369 7.90932 6.01663C7.71597 6.53875 7.51691 6.99724 7.51691 6.99724C7.51691 6.99724 5.14534 6.16756 3.89633 6.16756C2.6465 6.16756 1.12664 6.66928 0.979794 8.12551C0.832947 9.58255 1.68792 10.3706 2.89125 10.6611C4.09539 10.9531 5.20653 10.6586 6.1749 10.1846C7.14245 9.71145 8.09206 8.63621 8.09206 8.63621L12.9657 11.0021C12.8697 11.5615 12.5788 12.0689 12.1446 12.4346C11.7105 12.8002 11.161 13.0005 10.5933 13H2.40665C1.76894 13.0004 1.15717 12.7476 0.705857 12.297C0.254545 11.8465 0.000649362 11.2351 5.55122e-07 10.5974V2.40665C-0.000432417 1.76894 0.252426 1.15717 0.702973 0.705856C1.15352 0.254545 1.76486 0.000649362 2.40257 5.55122e-07H10.5925C11.2302 -0.000432417 11.842 0.252426 12.2933 0.702972C12.7446 1.15352 12.9985 1.76486 12.9992 2.40257V8.8475L13 8.84669ZM6.90587 8.03251C6.90587 8.03251 5.38356 9.95293 3.59121 9.95293C1.79805 9.95293 1.42115 9.04004 1.42115 8.38412C1.42115 7.72821 1.79398 7.01519 3.32036 6.91239C4.84512 6.80879 6.90587 8.03251 6.90587 8.03251Z" fill="var(--fill-0, #2773FF)"/>
</svg>
