<svg preserveAspectRatio="none" width="100%" height="100%" overflow="visible" style="display: block;" viewBox="0 0 9 14" fill="none" xmlns="http://www.w3.org/2000/svg">
<g id="Union">
<path d="M9 12L8.98926 12.2041C8.8938 13.1457 8.14565 13.8938 7.2041 13.9893L7 14H2C0.895431 14 4.83192e-08 13.1046 0 12V2C0 0.895431 0.895431 8.05332e-09 2 0H7C8.03565 0 8.887 0.787223 8.98926 1.7959L9 2V12ZM7.7998 2C7.7998 1.55817 7.44183 1.2002 7 1.2002H2C1.55817 1.2002 1.2002 1.55817 1.2002 2V12C1.2002 12.4418 1.55817 12.7998 2 12.7998H7C7.44183 12.7998 7.7998 12.4418 7.7998 12V2Z" fill="#000001"/>
</g>
</svg>
