<svg preserveAspectRatio="none" width="100%" height="100%" overflow="visible" style="display: block;" viewBox="0 0 16 16" fill="none" xmlns="http://www.w3.org/2000/svg">
<g id="audio">
<path id="Vector" fill-rule="evenodd" clip-rule="evenodd" d="M12.9997 1.40039C13.1588 1.40039 13.311 1.4637 13.4235 1.57617C13.536 1.68869 13.5993 1.84087 13.5993 2V11.0908C13.5991 11.7063 13.3893 12.3021 13.0055 12.7861C12.6219 13.2699 12.0863 13.6146 11.485 13.7705C10.884 13.9262 10.2463 13.8862 9.67058 13.6553C9.09476 13.4242 8.60941 13.0139 8.29363 12.4844C7.97756 11.9542 7.85025 11.3348 7.93327 10.7246C8.01637 10.1148 8.30432 9.55128 8.7487 9.12109C9.19288 8.69117 9.76902 8.41744 10.3854 8.33887C11.0017 8.2604 11.6287 8.38129 12.1696 8.68359L12.1676 8.68457C12.244 8.72397 12.3265 8.77537 12.4001 8.82715V2.59961H6.49089C6.27006 2.5997 6.0905 2.77915 6.0905 3V11.8262C6.09036 12.4418 5.88064 13.0383 5.49675 13.5225C5.11311 14.0063 4.57754 14.351 3.97624 14.5068C3.37525 14.6625 2.73749 14.6225 2.16179 14.3916C1.58586 14.1605 1.10063 13.7494 0.784837 13.2197C0.468925 12.6897 0.341477 12.071 0.424486 11.4609C0.507538 10.851 0.795517 10.2877 1.23992 9.85742C1.6841 9.42746 2.2602 9.15378 2.87663 9.0752C3.49292 8.99672 4.11988 9.11761 4.66081 9.41992L4.65886 9.4209C4.73525 9.46031 4.81767 9.5117 4.89128 9.56348V3C4.89128 2.1164 5.60732 1.40048 6.49089 1.40039H12.9997ZM4.07585 10.4668C3.76073 10.2907 3.39172 10.2193 3.028 10.2656C2.66444 10.312 2.32971 10.4731 2.07488 10.7197C1.82035 10.9661 1.65907 11.2842 1.61296 11.623C1.56692 11.9617 1.63802 12.3068 1.81609 12.6055C1.99441 12.9045 2.27196 13.1421 2.60906 13.2773C2.94638 13.4127 3.32175 13.4373 3.67546 13.3457C4.02898 13.2541 4.33799 13.0525 4.55632 12.7773C4.77438 12.5023 4.8912 12.1676 4.89128 11.8262V11.1787C4.87183 11.1528 4.84712 11.1212 4.81511 11.085C4.73688 10.9965 4.63815 10.9015 4.53386 10.8096C4.43026 10.7183 4.32748 10.6361 4.24285 10.5742C4.14505 10.5028 4.10686 10.4835 4.12175 10.4902C4.10612 10.4832 4.09083 10.4752 4.07585 10.4668ZM11.5837 9.73047C11.2687 9.5546 10.9003 9.48298 10.5368 9.5293C10.1733 9.57566 9.83849 9.73681 9.58367 9.9834C9.32916 10.2298 9.16787 10.5479 9.12175 10.8867C9.07567 11.2254 9.14681 11.5704 9.32488 11.8691C9.50319 12.1682 9.78073 12.4057 10.1178 12.541C10.4552 12.6763 10.8305 12.701 11.1843 12.6094C11.5378 12.5177 11.8468 12.3163 12.0651 12.041C12.283 11.7662 12.3999 11.4321 12.4001 11.0908V10.4434C12.3805 10.4173 12.3562 10.3851 12.3239 10.3486C12.2457 10.2601 12.1469 10.1651 12.0426 10.0732C11.939 9.98197 11.8363 9.89972 11.7516 9.83789C11.654 9.76655 11.6158 9.74729 11.6305 9.75391C11.6148 9.74682 11.5987 9.73887 11.5837 9.73047Z" fill="var(--fill-0, #000001)"/>
</g>
</svg>
