<svg preserveAspectRatio="none" width="100%" height="100%" overflow="visible" style="display: block;" viewBox="0 0 12.4337 13.0996" fill="none" xmlns="http://www.w3.org/2000/svg">
<g id="Union">
<path d="M6.21681 0C8.61242 0 10.6011 1.84992 10.7744 4.23926L10.8867 5.78711C10.9352 6.45504 11.1168 7.10697 11.4199 7.7041L12.3008 9.43848C12.7102 10.2448 12.124 11.1992 11.2197 11.1992H8.21193C8.15995 12.2574 7.28793 13.0996 6.21681 13.0996C5.14583 13.0994 4.27365 12.2574 4.22169 11.1992H1.21388C0.309715 11.1991 -0.276483 10.2447 0.132825 9.43848L1.01368 7.7041C1.31686 7.10696 1.49844 6.45505 1.54689 5.78711L1.65919 4.23926C1.83248 1.84999 3.82129 0.000107569 6.21681 0ZM5.42482 11.1992C5.47389 11.5938 5.80892 11.8992 6.21681 11.8994C6.62486 11.8994 6.96071 11.594 7.00978 11.1992H5.42482ZM6.21681 1.19922C4.45035 1.19933 2.98327 2.56432 2.85548 4.32617L2.74318 5.87402C2.6832 6.70096 2.45931 7.50777 2.084 8.24707L1.20314 9.98242C1.20229 9.98413 1.20143 9.98563 1.20118 9.98633C1.20123 9.98681 1.20198 9.99065 1.20411 9.99414C1.20583 9.99682 1.20729 9.99847 1.20802 9.99902H1.20997C1.21076 9.99912 1.21207 9.99997 1.21388 10H11.2197C11.2218 10 11.2238 9.99918 11.2246 9.99902C11.2252 9.99861 11.2285 9.99732 11.2305 9.99414C11.2326 9.9907 11.2324 9.98786 11.2324 9.9873C11.2322 9.98658 11.2314 9.98417 11.2305 9.98242L10.3496 8.24707C9.97435 7.50781 9.75042 6.70091 9.69044 5.87402L9.57814 4.32617C9.45034 2.56425 7.98336 1.19922 6.21681 1.19922Z" fill="#000001"/>
</g>
</svg>
