<svg preserveAspectRatio="none" width="100%" height="100%" overflow="visible" style="display: block;" viewBox="0 0 16 16" fill="none" xmlns="http://www.w3.org/2000/svg">
<g id="Buildings">
<g id="Vector">
<path d="M4.76172 9.11328H3.76172V8.11328H4.76172V9.11328Z" fill="var(--fill-0, #000001)"/>
<path d="M6.76172 9.11328H5.76172V8.11328H6.76172V9.11328Z" fill="var(--fill-0, #000001)"/>
<path d="M4.60156 6.11328C4.65745 6.11328 4.68566 6.11319 4.70703 6.12402C4.72585 6.13361 4.74139 6.14915 4.75098 6.16797C4.76181 6.18934 4.76172 6.21755 4.76172 6.27344V6.95312C4.76172 7.00902 4.76181 7.03722 4.75098 7.05859C4.74139 7.07741 4.72585 7.09295 4.70703 7.10254C4.68566 7.11337 4.65745 7.11328 4.60156 7.11328H3.92188C3.86599 7.11328 3.83778 7.11337 3.81641 7.10254C3.79759 7.09295 3.78205 7.07741 3.77246 7.05859C3.76163 7.03722 3.76172 7.00901 3.76172 6.95312V6.27344C3.76172 6.21755 3.76163 6.18934 3.77246 6.16797C3.78205 6.14915 3.79759 6.13361 3.81641 6.12402C3.83778 6.11319 3.86599 6.11328 3.92188 6.11328H4.60156Z" fill="var(--fill-0, #000001)"/>
<path d="M6.60156 6.11328C6.65745 6.11328 6.68566 6.11319 6.70703 6.12402C6.72585 6.13361 6.74139 6.14915 6.75098 6.16797C6.76181 6.18934 6.76172 6.21755 6.76172 6.27344V6.95312C6.76172 7.00902 6.76181 7.03722 6.75098 7.05859C6.74139 7.07741 6.72585 7.09295 6.70703 7.10254C6.68566 7.11337 6.65745 7.11328 6.60156 7.11328H5.92188C5.86599 7.11328 5.83778 7.11337 5.81641 7.10254C5.79759 7.09295 5.78205 7.07741 5.77246 7.05859C5.76163 7.03722 5.76172 7.00901 5.76172 6.95312V6.27344C5.76172 6.21755 5.76163 6.18934 5.77246 6.16797C5.78205 6.14915 5.79759 6.13361 5.81641 6.12402C5.83778 6.11319 5.86599 6.11328 5.92188 6.11328H6.60156Z" fill="var(--fill-0, #000001)"/>
<path d="M4.60156 4.11328C4.65745 4.11328 4.68566 4.11319 4.70703 4.12402C4.72585 4.13361 4.74139 4.14915 4.75098 4.16797C4.76181 4.18934 4.76172 4.21755 4.76172 4.27344V4.95312C4.76172 5.00902 4.76181 5.03722 4.75098 5.05859C4.74139 5.07741 4.72585 5.09295 4.70703 5.10254C4.68566 5.11337 4.65745 5.11328 4.60156 5.11328H3.92188C3.86599 5.11328 3.83778 5.11337 3.81641 5.10254C3.79759 5.09295 3.78205 5.07741 3.77246 5.05859C3.76163 5.03722 3.76172 5.00901 3.76172 4.95312V4.27344C3.76172 4.21755 3.76163 4.18934 3.77246 4.16797C3.78205 4.14915 3.79759 4.13361 3.81641 4.12402C3.83778 4.11319 3.86599 4.11328 3.92188 4.11328H4.60156Z" fill="var(--fill-0, #000001)"/>
<path d="M6.60156 4.11328C6.65745 4.11328 6.68566 4.11319 6.70703 4.12402C6.72585 4.13361 6.74139 4.14915 6.75098 4.16797C6.76181 4.18934 6.76172 4.21755 6.76172 4.27344V4.95312C6.76172 5.00902 6.76181 5.03722 6.75098 5.05859C6.74139 5.07741 6.72585 5.09295 6.70703 5.10254C6.68566 5.11337 6.65745 5.11328 6.60156 5.11328H5.92188C5.86599 5.11328 5.83778 5.11337 5.81641 5.10254C5.79759 5.09295 5.78205 5.07741 5.77246 5.05859C5.76163 5.03722 5.76172 5.00901 5.76172 4.95312V4.27344C5.76172 4.21755 5.76163 4.18934 5.77246 4.16797C5.78205 4.14915 5.79759 4.13361 5.81641 4.12402C5.83778 4.11319 5.86599 4.11328 5.92188 4.11328H6.60156Z" fill="var(--fill-0, #000001)"/>
<path d="M10.4648 10C10.5207 10 10.5489 9.99991 10.5703 10.0107C10.5891 10.0203 10.6047 10.0359 10.6143 10.0547C10.6251 10.0761 10.625 10.1043 10.625 10.1602V10.8398C10.625 10.8957 10.6251 10.9239 10.6143 10.9453C10.6047 10.9641 10.5891 10.9797 10.5703 10.9893C10.5489 11.0001 10.5207 11 10.4648 11H9.78516C9.72927 11 9.70106 11.0001 9.67969 10.9893C9.66087 10.9797 9.64533 10.9641 9.63574 10.9453C9.62491 10.9239 9.625 10.8957 9.625 10.8398V10.1602C9.625 10.1043 9.62491 10.0761 9.63574 10.0547C9.64533 10.0359 9.66087 10.0203 9.67969 10.0107C9.70106 9.99991 9.72927 10 9.78516 10H10.4648Z" fill="var(--fill-0, #000001)"/>
<path d="M12.4648 10C12.5207 10 12.5489 9.99991 12.5703 10.0107C12.5891 10.0203 12.6047 10.0359 12.6143 10.0547C12.6251 10.0761 12.625 10.1043 12.625 10.1602V10.8398C12.625 10.8957 12.6251 10.9239 12.6143 10.9453C12.6047 10.9641 12.5891 10.9797 12.5703 10.9893C12.5489 11.0001 12.5207 11 12.4648 11H11.7852C11.7293 11 11.7011 11.0001 11.6797 10.9893C11.6609 10.9797 11.6453 10.9641 11.6357 10.9453C11.6249 10.9239 11.625 10.8957 11.625 10.8398V10.1602C11.625 10.1043 11.6249 10.0761 11.6357 10.0547C11.6453 10.0359 11.6609 10.0203 11.6797 10.0107C11.7011 9.99991 11.7293 10 11.7852 10H12.4648Z" fill="var(--fill-0, #000001)"/>
<path d="M10.4648 8C10.5207 8 10.5489 7.99991 10.5703 8.01074C10.5891 8.02033 10.6047 8.03587 10.6143 8.05469C10.6251 8.07606 10.625 8.10427 10.625 8.16016V8.83984C10.625 8.89573 10.6251 8.92394 10.6143 8.94531C10.6047 8.96413 10.5891 8.97967 10.5703 8.98926C10.5489 9.00009 10.5207 9 10.4648 9H9.78516C9.72927 9 9.70106 9.00009 9.67969 8.98926C9.66087 8.97967 9.64533 8.96413 9.63574 8.94531C9.62491 8.92394 9.625 8.89573 9.625 8.83984V8.16016C9.625 8.10427 9.62491 8.07606 9.63574 8.05469C9.64533 8.03587 9.66087 8.02033 9.67969 8.01074C9.70106 7.99991 9.72927 8 9.78516 8H10.4648Z" fill="var(--fill-0, #000001)"/>
<path d="M12.4648 8C12.5207 8 12.5489 7.99991 12.5703 8.01074C12.5891 8.02033 12.6047 8.03587 12.6143 8.05469C12.6251 8.07606 12.625 8.10427 12.625 8.16016V8.83984C12.625 8.89573 12.6251 8.92394 12.6143 8.94531C12.6047 8.96413 12.5891 8.97967 12.5703 8.98926C12.5489 9.00009 12.5207 9 12.4648 9H11.7852C11.7293 9 11.7011 9.00009 11.6797 8.98926C11.6609 8.97967 11.6453 8.96413 11.6357 8.94531C11.6249 8.92394 11.625 8.89573 11.625 8.83984V8.16016C11.625 8.10427 11.6249 8.07606 11.6357 8.05469C11.6453 8.03587 11.6609 8.02033 11.6797 8.01074C11.7011 7.99991 11.7293 8 11.7852 8H12.4648Z" fill="var(--fill-0, #000001)"/>
<path fill-rule="evenodd" clip-rule="evenodd" d="M5.56152 1C6.68163 1 7.2421 0.999788 7.66992 1.21777C8.04617 1.40951 8.35221 1.71555 8.54395 2.0918C8.76193 2.51962 8.76172 3.08011 8.76172 4.2002V5.88672H11.4248C12.5449 5.88672 13.1054 5.88651 13.5332 6.10449C13.9095 6.29623 14.2155 6.60226 14.4072 6.97852C14.6252 7.40634 14.625 7.96681 14.625 9.08691V14.999L1.76172 15V4.2002C1.76172 3.08011 1.76151 2.51962 1.97949 2.0918C2.17123 1.71555 2.47726 1.40951 2.85352 1.21777C3.17435 1.0543 3.56975 1.01315 4.21973 1.00293L4.96191 1H5.56152ZM4.96191 2.2002C4.38222 2.2002 4.01937 2.20132 3.74609 2.22363C3.4868 2.24482 3.41499 2.27868 3.39844 2.28711C3.24794 2.3638 3.12552 2.48622 3.04883 2.63672C3.04039 2.65329 3.00653 2.72514 2.98535 2.98438C2.96304 3.25765 2.96191 3.62052 2.96191 4.2002V13.7998H3.41406V11.7783C3.41417 11.2814 3.81658 10.879 4.31348 10.8789H6.21387C6.71077 10.879 7.11318 11.2814 7.11328 11.7783V13.7998H7.56152V4.2002C7.56152 3.62052 7.5604 3.25765 7.53809 2.98438C7.51691 2.72514 7.48305 2.65329 7.47461 2.63672C7.39792 2.48622 7.2755 2.3638 7.125 2.28711C7.10845 2.27868 7.03664 2.24482 6.77734 2.22363C6.50407 2.20132 6.14122 2.2002 5.56152 2.2002H4.96191ZM4.61328 13.7998H5.91406V12.0781H4.61328V13.7998ZM8.8252 13.7988H9.52344V12.6914C9.52348 12.1944 9.92591 11.7911 10.4229 11.791H11.8232C12.3202 11.7911 12.7226 12.1944 12.7227 12.6914V13.7988H13.4248V9.08691C13.4248 8.50722 13.4237 8.14437 13.4014 7.87109C13.3802 7.6118 13.3463 7.53999 13.3379 7.52344C13.2612 7.37294 13.1388 7.25052 12.9883 7.17383C12.9717 7.1654 12.8999 7.13154 12.6406 7.11035C12.3673 7.08804 12.0045 7.08691 11.4248 7.08691H8.8252V13.7988ZM10.7227 13.7988H11.5234V12.9912H10.7227V13.7988Z" fill="var(--fill-0, #000001)"/>
</g>
</g>
</svg>
