<svg preserveAspectRatio="none" width="100%" height="100%" overflow="visible" style="display: block;" viewBox="0 0 14 14" fill="none" xmlns="http://www.w3.org/2000/svg">
<path id="Subtract" d="M7 0C10.866 0 14 3.13401 14 7C14 10.866 10.866 14 7 14C3.13401 14 0 10.866 0 7C0 3.13401 3.13401 0 7 0ZM10.7246 4.59082C10.4985 4.34857 10.1182 4.33542 9.87598 4.56152L6.01367 8.16602L4.42383 6.57617C4.18951 6.34186 3.81049 6.34186 3.57617 6.57617C3.34186 6.81049 3.34186 7.18951 3.57617 7.42383L5.57617 9.42383C5.80478 9.65244 6.17281 9.65905 6.40918 9.43848L10.6953 5.43848C10.9373 5.21243 10.9504 4.83302 10.7246 4.59082Z" fill="var(--fill-0, #000001)"/>
</svg>
