<svg preserveAspectRatio="none" width="100%" height="100%" overflow="visible" style="display: block;" viewBox="0 0 14 14" fill="none" xmlns="http://www.w3.org/2000/svg">
<g id="Union">
<path d="M9.87598 4.56152C10.1182 4.33542 10.4985 4.34857 10.7246 4.59082C10.9504 4.83302 10.9373 5.21243 10.6953 5.43848L6.40918 9.43848C6.17281 9.65905 5.80478 9.65244 5.57617 9.42383L3.57617 7.42383C3.34186 7.18951 3.34186 6.81049 3.57617 6.57617C3.81049 6.34186 4.18951 6.34186 4.42383 6.57617L6.01367 8.16602L9.87598 4.56152Z" fill="#000001"/>
<path d="M7 0C10.866 0 14 3.13401 14 7C14 10.866 10.866 14 7 14C3.13401 14 0 10.866 0 7C0 3.13401 3.13401 0 7 0ZM7 1.2002C3.79675 1.2002 1.2002 3.79675 1.2002 7C1.2002 10.2033 3.79675 12.7998 7 12.7998C10.2033 12.7998 12.7998 10.2033 12.7998 7C12.7998 3.79675 10.2033 1.2002 7 1.2002Z" fill="#000001"/>
</g>
</svg>
