<svg preserveAspectRatio="none" width="100%" height="100%" overflow="visible" style="display: block;" viewBox="0 0 16 16" fill="none" xmlns="http://www.w3.org/2000/svg">
<g id="clock-stopwatch">
<g id="Subtract">
<path d="M9.50005 0.900391C9.83135 0.900466 10.0997 1.16868 10.0997 1.5C10.0997 1.83132 9.83135 2.09953 9.50005 2.09961H8.59965V2.92969C11.687 3.23095 14.0997 5.83344 14.0997 9C14.0997 12.3689 11.3689 15.0995 8.00005 15.0996C4.63111 15.0996 1.90044 12.3689 1.90044 9C1.90044 5.83338 4.31296 3.23087 7.40044 2.92969V2.09961H6.50005C6.16867 2.09961 5.90044 1.83137 5.90044 1.5C5.90044 1.16863 6.16867 0.900391 6.50005 0.900391H9.50005ZM8.00005 5.90039C7.66867 5.90039 7.40044 6.16863 7.40044 6.5V9C7.40044 9.20052 7.50025 9.38773 7.66704 9.49902L9.16704 10.499C9.44267 10.6827 9.81522 10.6085 9.99907 10.333C10.1828 10.0574 10.1085 9.68485 9.83305 9.50098L8.59965 8.67871V6.5C8.59965 6.16866 8.33137 5.90044 8.00005 5.90039Z" fill="var(--fill-0, #000001)"/>
<path d="M2.57622 3.07617C2.81054 2.84193 3.18958 2.84188 3.42387 3.07617C3.6581 3.31047 3.65809 3.68953 3.42387 3.92383L2.42387 4.92383C2.18958 5.15812 1.81054 5.15808 1.57622 4.92383C1.3419 4.68951 1.3419 4.31049 1.57622 4.07617L2.57622 3.07617Z" fill="var(--fill-0, #000001)"/>
<path d="M12.5762 3.07617C12.8105 2.84193 13.1896 2.84188 13.4239 3.07617L14.4239 4.07617C14.6581 4.31047 14.6581 4.68953 14.4239 4.92383C14.1896 5.15812 13.8105 5.15808 13.5762 4.92383L12.5762 3.92383C12.3419 3.68951 12.3419 3.31049 12.5762 3.07617Z" fill="var(--fill-0, #000001)"/>
</g>
</g>
</svg>
