<svg preserveAspectRatio="none" width="100%" height="100%" overflow="visible" style="display: block;" viewBox="0 0 9.19911 9.19911" fill="none" xmlns="http://www.w3.org/2000/svg">
<path id="Union" d="M8.17574 0.175736C8.41005 -0.0585787 8.78908 -0.0585787 9.02339 0.175736C9.25766 0.410054 9.25769 0.789093 9.02339 1.02339L5.44722 4.59956L9.02339 8.17574C9.25766 8.41005 9.25769 8.78909 9.02339 9.02339C8.78909 9.25769 8.41005 9.25766 8.17574 9.02339L4.59956 5.44722L1.02339 9.02339C0.789093 9.25769 0.410054 9.25766 0.175736 9.02339C-0.0585787 8.78908 -0.0585787 8.41005 0.175736 8.17574L3.75191 4.59956L0.175736 1.02339C-0.0585787 0.789078 -0.0585787 0.410051 0.175736 0.175736C0.410051 -0.0585787 0.789078 -0.0585787 1.02339 0.175736L4.59956 3.75191L8.17574 0.175736Z" fill="var(--fill-0, #000001)"/>
</svg>
