<svg preserveAspectRatio="none" width="100%" height="100%" overflow="visible" style="display: block;" viewBox="0 0 14.427 13.927" fill="none" xmlns="http://www.w3.org/2000/svg">
<g id="Union">
<path d="M6.59961 0.727733C6.84298 0.727733 7.06187 0.874688 7.1543 1.0998C7.15457 1.10045 7.15565 1.10216 7.15625 1.10371C7.15776 1.10734 7.16079 1.11353 7.16406 1.12129C7.17074 1.13717 7.18068 1.16198 7.19434 1.19355C7.22192 1.25733 7.2635 1.35181 7.31738 1.46894C7.42544 1.70383 7.58388 2.03099 7.78125 2.39766C8.18195 3.142 8.72358 4.00597 9.32227 4.60469C9.92097 5.20339 10.7849 5.74499 11.5293 6.1457C11.896 6.34309 12.2231 6.5015 12.458 6.60957C12.5752 6.66347 12.6696 6.70502 12.7334 6.73262C12.765 6.74629 12.7898 6.7562 12.8057 6.76289C12.8135 6.76617 12.8196 6.76918 12.8232 6.7707C12.8248 6.77135 12.8264 6.77142 12.8271 6.77168C13.0523 6.86404 13.1991 7.08399 13.1992 7.32734C13.1992 7.57075 13.0523 7.78963 12.8271 7.88203C12.8265 7.8823 12.8248 7.88334 12.8232 7.88398C12.8196 7.88549 12.8135 7.88851 12.8057 7.8918C12.7898 7.89848 12.765 7.90839 12.7334 7.92207C12.6696 7.94966 12.5752 7.99121 12.458 8.04512C12.2231 8.15318 11.896 8.31159 11.5293 8.50898C10.7849 8.90968 9.92099 9.45131 9.32227 10.05C8.72358 10.6487 8.18196 11.5127 7.78125 12.257C7.58388 12.6237 7.42545 12.9508 7.31738 13.1857C7.26351 13.3029 7.22193 13.3973 7.19434 13.4611C7.18069 13.4927 7.17075 13.5175 7.16406 13.5334C7.16081 13.5411 7.15779 13.5473 7.15625 13.551C7.15563 13.5525 7.1555 13.5541 7.15527 13.5549C7.06289 13.7801 6.84304 13.927 6.59961 13.927C6.35618 13.927 6.13731 13.7801 6.04492 13.5549C6.0447 13.5541 6.04358 13.5525 6.04297 13.551C6.04143 13.5473 6.03841 13.5411 6.03516 13.5334C6.02847 13.5175 6.01853 13.4927 6.00488 13.4611C5.97729 13.3973 5.93571 13.3029 5.88184 13.1857C5.77377 12.9508 5.61534 12.6237 5.41797 12.257C5.01726 11.5127 4.47564 10.6487 3.87695 10.05C3.27823 9.45131 2.41427 8.90968 1.66992 8.50898C1.30323 8.31159 0.976113 8.15318 0.741211 8.04512C0.624033 7.99121 0.529608 7.94966 0.46582 7.92207C0.434199 7.90839 0.409448 7.89848 0.393555 7.8918C0.385746 7.88851 0.379617 7.88549 0.375977 7.88398C0.374389 7.88334 0.372734 7.88328 0.37207 7.88301C0.1469 7.79061 0 7.57075 0 7.32734C7.8081e-05 7.08399 0.146921 6.86501 0.37207 6.77266C0.372777 6.7724 0.374414 6.77135 0.375977 6.7707C0.379635 6.76918 0.385762 6.76617 0.393555 6.76289C0.409462 6.7562 0.434211 6.74629 0.46582 6.73262C0.52962 6.70502 0.624042 6.66347 0.741211 6.60957C0.976125 6.5015 1.30323 6.34309 1.66992 6.1457C2.41429 5.74499 3.27825 5.20339 3.87695 4.60469C4.47564 4.00597 5.01727 3.142 5.41797 2.39766C5.61534 2.03099 5.77378 1.70383 5.88184 1.46894C5.93572 1.35181 5.9773 1.25733 6.00488 1.19355C6.01854 1.16198 6.02848 1.13717 6.03516 1.12129C6.03843 1.11353 6.04146 1.10734 6.04297 1.10371C6.04357 1.10216 6.04368 1.10045 6.04395 1.0998C6.13637 0.874688 6.35624 0.727733 6.59961 0.727733ZM6.47461 2.96699C6.05693 3.74285 5.44926 4.72961 4.72559 5.45332C4.0019 6.17701 3.01513 6.78465 2.23926 7.20234C2.15673 7.24677 2.07433 7.28678 1.99609 7.32734C2.07433 7.3679 2.15673 7.40792 2.23926 7.45234C3.01511 7.87002 4.00188 8.47769 4.72559 9.20137C5.44925 9.92503 6.05692 10.9118 6.47461 11.6877C6.51888 11.7699 6.55918 11.8519 6.59961 11.9299C6.64003 11.8519 6.68034 11.7699 6.72461 11.6877C7.1423 10.9118 7.74996 9.92503 8.47363 9.20137C9.19734 8.47769 10.1841 7.87002 10.96 7.45234C11.0422 7.40806 11.1242 7.36778 11.2021 7.32734C11.1242 7.2869 11.0422 7.24662 10.96 7.20234C10.1841 6.78465 9.19732 6.17701 8.47363 5.45332C7.74996 4.72961 7.14228 3.74285 6.72461 2.96699C6.6802 2.88448 6.64016 2.80204 6.59961 2.72383C6.55906 2.80204 6.51902 2.88448 6.47461 2.96699Z" fill="#000001"/>
<path d="M11.8633 0.150585C11.93 -0.0501949 12.2692 -0.0501949 12.3359 0.150585C12.4941 0.626263 12.721 1.18108 12.9834 1.44355C13.2458 1.70594 13.8007 1.93283 14.2764 2.09101C14.4771 2.15778 14.4771 2.49691 14.2764 2.56367C13.8007 2.72184 13.2458 2.94876 12.9834 3.21113C12.721 3.4735 12.4941 4.02844 12.3359 4.5041C12.2692 4.70488 11.93 4.70488 11.8633 4.5041C11.7051 4.02844 11.4782 3.4735 11.2158 3.21113C10.9534 2.94876 10.3985 2.72184 9.92285 2.56367C9.72207 2.49691 9.72207 2.15778 9.92285 2.09101C10.3985 1.93283 10.9534 1.70594 11.2158 1.44355C11.4782 1.18108 11.7051 0.626263 11.8633 0.150585Z" fill="#000001"/>
</g>
</svg>
