<svg preserveAspectRatio="none" width="100%" height="100%" overflow="visible" style="display: block;" viewBox="0 0 14.3137 14.0842" fill="none" xmlns="http://www.w3.org/2000/svg">
<path id="Union" d="M8.50277 1.75667C9.85644 0.403396 12.0355 0.294259 13.369 1.62777C14.7025 2.9614 14.5927 5.14035 13.2391 6.49398C12.4953 7.23764 11.6573 7.47545 11.0116 7.53011C11.0527 7.68916 11.0561 7.85671 11.0164 8.01839C10.9498 8.28952 10.7024 8.5365 10.2088 9.03011L6.08089 13.159L5.91585 13.3201C5.87178 13.3611 5.83499 13.3921 5.79573 13.4188L5.68636 13.4832C5.64884 13.5022 5.60984 13.5189 5.57015 13.533C5.48056 13.5649 5.38404 13.5798 5.19222 13.6092L2.85335 13.9686L2.36995 14.0399C1.94756 14.0974 1.69267 14.1068 1.49398 14.0203L1.40999 13.9793C1.24491 13.8882 1.10853 13.7518 1.01741 13.5867L0.976398 13.5028C0.889951 13.304 0.900277 13.0493 0.957843 12.6268L1.02816 12.1444L1.38753 9.80452C1.4022 9.70897 1.41333 9.63703 1.42464 9.57796L1.46468 9.42659C1.493 9.34718 1.53069 9.27082 1.57796 9.20101C1.6046 9.16175 1.63569 9.12496 1.67659 9.08089L1.83773 8.91683L5.47152 5.28304C5.7872 4.96735 5.94516 4.80942 6.13167 4.73323C6.29608 4.6661 6.47541 4.64365 6.6512 4.66878C6.8008 4.69027 6.94697 4.75989 7.17171 4.89046L7.32991 4.98519C7.34355 4.97034 7.35406 4.9597 7.36116 4.95101C7.36886 4.94158 7.37219 4.93654 7.37288 4.93538C7.38785 4.91187 7.39659 4.89778 7.40218 4.88851L7.42073 4.82894C7.41697 4.84223 7.42467 4.81032 7.43636 4.65999C7.44674 4.52637 7.45781 4.34177 7.47249 4.08284C7.51965 3.25128 7.85251 2.40702 8.50277 1.75667ZM11.8328 10.3973C11.9036 10.198 12.2494 10.198 12.3201 10.3973C12.4483 10.759 12.6191 11.1455 12.8133 11.3397C13.0075 11.5339 13.394 11.7047 13.7557 11.8328C13.955 11.9036 13.955 12.2494 13.7557 12.3201C13.394 12.4483 13.0075 12.6191 12.8133 12.8133C12.6191 13.0075 12.4483 13.394 12.3201 13.7557C12.2494 13.955 11.9036 13.955 11.8328 13.7557C11.7047 13.394 11.5339 13.0075 11.3397 12.8133C11.1455 12.6191 10.759 12.4483 10.3973 12.3201C10.198 12.2494 10.198 11.9036 10.3973 11.8328C10.759 11.7047 11.1455 11.5339 11.3397 11.3397C11.5339 11.1455 11.7047 10.759 11.8328 10.3973ZM6.51839 5.93441C6.46358 5.98769 6.40076 6.05106 6.32015 6.13167L2.59456 9.85726C2.59398 9.86077 2.59323 9.86515 2.59261 9.86898C2.58746 9.90092 2.58155 9.93835 2.57405 9.98714L2.21468 12.326C2.17896 12.5586 2.15523 12.728 2.13851 12.8582C2.26873 12.8415 2.43803 12.8178 2.67073 12.7821L5.01058 12.4227C5.05936 12.4152 5.0968 12.4093 5.12874 12.4041C5.13236 12.4035 5.13619 12.4017 5.13948 12.4012C5.14169 12.3991 5.14496 12.3976 5.1473 12.3953L9.36019 8.18148C9.51769 8.02397 9.63071 7.90932 9.71566 7.82015C9.61166 7.7543 9.47369 7.67087 9.28304 7.55648L6.80843 6.07112C6.71085 6.01258 6.63518 5.96691 6.56917 5.92855C6.55977 5.92308 6.55034 5.91781 6.54183 5.91292C6.53458 5.91988 6.52639 5.92663 6.51839 5.93441ZM12.5213 2.47542C11.7071 1.66117 10.2879 1.66787 9.35042 2.6053C8.92625 3.02962 8.70174 3.58739 8.66976 4.15023C8.65538 4.40378 8.64425 4.60445 8.63265 4.75374C8.62239 4.88562 8.60869 5.03584 8.57503 5.15511C8.55808 5.21513 8.53619 5.2945 8.49984 5.37581C8.46336 5.45723 8.41813 5.52723 8.3846 5.57991C8.37878 5.58905 8.37127 5.59716 8.36507 5.60628L9.78694 6.45882C10.0448 6.35949 10.3157 6.32932 10.5565 6.34261C11.0104 6.36763 11.7492 6.28833 12.3914 5.64632C13.3288 4.70891 13.3355 3.28968 12.5213 2.47542ZM2.59456 0.151203C2.65879 -0.0504008 2.9942 -0.0504008 3.05843 0.151203C3.2436 0.732352 3.5258 1.46427 3.85726 1.79573C4.18874 2.12719 4.92064 2.40939 5.50179 2.59456C5.70339 2.65879 5.70339 2.9942 5.50179 3.05843C4.92063 3.2436 4.18872 3.52579 3.85726 3.85726C3.52579 4.18872 3.2436 4.92063 3.05843 5.50179C2.9942 5.70339 2.65879 5.70339 2.59456 5.50179C2.40939 4.92064 2.12719 4.18874 1.79573 3.85726C1.46427 3.5258 0.732352 3.2436 0.151203 3.05843C-0.0504008 2.9942 -0.0504008 2.65879 0.151203 2.59456C0.732354 2.40939 1.46427 2.1272 1.79573 1.79573C2.1272 1.46427 2.40939 0.732354 2.59456 0.151203ZM11.8534 3.21761C12.1152 3.13037 12.3988 3.27219 12.4862 3.53402C12.5704 3.7867 12.6212 4.17956 12.4979 4.57503C12.3652 5.00042 12.0414 5.38792 11.4627 5.58089C11.2008 5.66821 10.9172 5.52646 10.8299 5.26448C10.7428 5.00263 10.8845 4.71997 11.1463 4.63265C11.4158 4.54281 11.5046 4.39968 11.5428 4.27718C11.5903 4.12468 11.5706 3.95125 11.5369 3.85042C11.4498 3.5885 11.5914 3.30491 11.8534 3.21761Z" fill="var(--fill-0, #000001)"/>
</svg>
