<svg preserveAspectRatio="none" width="100%" height="100%" overflow="visible" style="display: block;" viewBox="0 0 15 15" fill="none" xmlns="http://www.w3.org/2000/svg">
<g id="export">
<g id="Vector">
<path d="M12.6562 8.34375C12.9669 8.34375 13.2188 8.59559 13.2188 8.90625V11.7188C13.2188 12.5472 12.5472 13.2188 11.7188 13.2188H3.28125C2.45282 13.2188 1.78125 12.5472 1.78125 11.7188V8.90625C1.78125 8.59559 2.03309 8.34375 2.34375 8.34375C2.65441 8.34375 2.90625 8.59559 2.90625 8.90625V11.7188C2.90625 11.9259 3.07414 12.0938 3.28125 12.0938H11.7188C11.9259 12.0938 12.0938 11.9259 12.0938 11.7188V8.90625C12.0938 8.59559 12.3456 8.34375 12.6562 8.34375Z" fill="var(--fill-0, #000001)"/>
<path d="M7.5 0.84375C7.81066 0.84375 8.0625 1.09559 8.0625 1.40625V7.70508L9.95312 6.13086C10.1918 5.93216 10.5463 5.96453 10.7451 6.20312C10.9434 6.44177 10.9103 6.79642 10.6719 6.99512L7.85938 9.33887C7.65102 9.51195 7.34898 9.51196 7.14062 9.33887L4.32812 6.99512C4.08953 6.79629 4.05716 6.44178 4.25586 6.20312C4.45469 5.96453 4.80822 5.93216 5.04688 6.13086L6.9375 7.70508V1.40625C6.9375 1.09559 7.18934 0.843752 7.5 0.84375Z" fill="var(--fill-0, #000001)"/>
</g>
</g>
</svg>
