<svg preserveAspectRatio="none" width="100%" height="100%" overflow="visible" style="display: block;" viewBox="0 0 16 16" fill="none" xmlns="http://www.w3.org/2000/svg">
<g id="eye">
<g id="Union">
<path fill-rule="evenodd" clip-rule="evenodd" d="M7.99986 5.59961C9.2699 5.59964 10.2994 6.62944 10.2997 7.89941C10.2997 9.16965 9.27009 10.1992 7.99986 10.1992C6.72969 10.1991 5.70005 9.1696 5.70005 7.89941C5.70035 6.62948 6.72988 5.59971 7.99986 5.59961ZM7.99986 6.7998C7.39262 6.79991 6.90055 7.29222 6.90025 7.89941C6.90025 8.50686 7.39243 8.99989 7.99986 9C8.60734 8.99997 9.10044 8.50691 9.10044 7.89941C9.10014 7.29218 8.60716 6.79983 7.99986 6.7998Z" fill="var(--fill-0, black)"/>
<path fill-rule="evenodd" clip-rule="evenodd" d="M7.99986 3C11.4475 3 14.2484 6.07278 14.9686 7.91699C14.9894 7.97042 14.9845 8.02788 14.9569 8.07812C13.943 9.92179 11.9435 13 7.99986 13C4.30295 12.9999 2.31454 10.2948 1.24497 8.4375L1.04282 8.07812C1.01523 8.0279 1.01033 7.97038 1.03111 7.91699C1.75131 6.07281 4.55227 3.00009 7.99986 3ZM7.99986 4.2002C6.63636 4.20024 5.33417 4.81107 4.25279 5.69531C3.35903 6.42625 2.70293 7.27595 2.34458 7.94141C3.3754 9.70124 5.04651 11.7997 7.99986 11.7998C10.953 11.7998 12.6233 9.70117 13.6542 7.94141C13.2957 7.276 12.6405 6.4261 11.7469 5.69531C10.6655 4.81108 9.36337 4.2002 7.99986 4.2002Z" fill="var(--fill-0, black)"/>
</g>
</g>
</svg>
