<svg preserveAspectRatio="none" width="100%" height="100%" overflow="visible" style="display: block;" viewBox="0 0 13 11" fill="none" xmlns="http://www.w3.org/2000/svg">
<path id="Rectangle 10 (Stroke)" d="M0 9V2C5.21686e-08 0.964349 0.787223 0.113005 1.7959 0.0107422L2 0H3.65039C4.27553 0 4.86498 0.292267 5.24316 0.790039L5.75488 1.46387C5.90979 1.66767 6.14038 1.79787 6.3916 1.82715L6.5 1.83301H11C12.1045 1.83301 12.9998 2.72859 13 3.83301V9L12.9893 9.2041C12.8938 10.1457 12.1457 10.8938 11.2041 10.9893L11 11V9.7998C11.4418 9.7998 11.7998 9.44183 11.7998 9V3.83301C11.7996 3.39133 11.4417 3.0332 11 3.0332H6.5C5.83246 3.0332 5.20368 2.72095 4.7998 2.18945L4.28809 1.51562C4.13681 1.31653 3.90044 1.2002 3.65039 1.2002H2C1.55817 1.2002 1.2002 1.55817 1.2002 2V9C1.2002 9.44183 1.55817 9.7998 2 9.7998V11L1.7959 10.9893C0.787223 10.887 0 10.0357 0 9ZM11 9.7998V11H2V9.7998H11Z" fill="var(--fill-0, #000001)"/>
</svg>
