<svg preserveAspectRatio="none" width="100%" height="100%" overflow="visible" style="display: block;" viewBox="0 0 13.1992 13.1992" fill="none" xmlns="http://www.w3.org/2000/svg">
<g id="Union">
<path d="M6.59961 0C10.2447 0 13.1992 2.95453 13.1992 6.59961C13.1992 6.97372 13.1684 7.34134 13.1084 7.69922C13.0534 8.02584 12.7437 8.24622 12.417 8.19141C12.0904 8.13641 11.87 7.82668 11.9248 7.5C11.9738 7.20756 12 6.90682 12 6.59961C12 3.61727 9.58195 1.19922 6.59961 1.19922C3.61727 1.19922 1.19922 3.61727 1.19922 6.59961C1.19922 9.58195 3.61727 12 6.59961 12C7.99557 12 9.26662 11.4695 10.2256 10.5996H9.09961C8.82347 10.5996 8.59961 10.3758 8.59961 10.0996C8.59961 9.82347 8.82347 9.59961 9.09961 9.59961H11.5996C11.8758 9.59961 12.0996 9.82347 12.0996 10.0996V12.5996C12.0996 12.8758 11.8758 13.0996 11.5996 13.0996C11.3235 13.0996 11.0996 12.8758 11.0996 12.5996V11.4248C9.92103 12.5242 8.33932 13.1992 6.59961 13.1992C2.95453 13.1992 0 10.2447 0 6.59961C0 2.95453 2.95453 0 6.59961 0Z" fill="var(--fill-0, #000001)"/>
<path d="M6.09961 3.5C6.43098 3.5 6.69922 3.76824 6.69922 4.09961V6.72754L8.36816 7.5625C8.66455 7.71069 8.78491 8.07178 8.63672 8.36816C8.48853 8.66455 8.12744 8.78491 7.83105 8.63672L5.83105 7.63672C5.62778 7.53508 5.5 7.32687 5.5 7.09961V4.09961C5.5 3.76824 5.76824 3.5 6.09961 3.5Z" fill="var(--fill-0, #000001)"/>
</g>
</svg>
