<svg preserveAspectRatio="none" width="100%" height="100%" overflow="visible" style="display: block;" viewBox="0 0 12 12.2636" fill="none" xmlns="http://www.w3.org/2000/svg">
<path id="Union  (Stroke)" d="M10.0029 11.0634V12.2636H1.99902V11.0634H10.0029ZM10.7998 10.2636V4.66695C10.7998 4.39947 10.6659 4.14931 10.4434 4.00094L6.44336 1.33395C6.17485 1.1552 5.82515 1.1552 5.55664 1.33395L1.55664 4.00094C1.33408 4.14931 1.2002 4.39947 1.2002 4.66695V10.2636C1.2004 10.7055 1.55793 11.0632 1.99902 11.0634V12.2636L1.79492 12.2529C0.85375 12.1573 0.106294 11.409 0.0107422 10.4677L0 10.2636V4.66695C0 4.04003 0.293875 3.45185 0.789062 3.07516L0.890625 3.00289L4.89062 0.335899C5.56242 -0.111966 6.43758 -0.111966 7.10938 0.335899L11.1094 3.00289C11.6657 3.37384 12 3.99831 12 4.66695V10.2636L11.9893 10.4677C11.8871 11.4762 11.0384 12.2636 10.0029 12.2636V11.0634C10.4424 11.0634 10.7996 10.7075 10.7998 10.2636Z" fill="var(--fill-0, #000001)"/>
</svg>
