<svg preserveAspectRatio="none" width="100%" height="100%" overflow="visible" style="display: block;" viewBox="0 0 12.1992 13.1994" fill="none" xmlns="http://www.w3.org/2000/svg">
<g id="Union">
<path d="M11.5996 8.00014C11.9309 8.00014 12.1991 8.26849 12.1992 8.59975V11.5997C12.1992 12.4834 11.4833 13.1994 10.5996 13.1994H1.59961C0.715954 13.1994 0 12.4834 0 11.5997V8.59975C0.000127084 8.26849 0.268317 8.00014 0.599609 8.00014C0.930902 8.00014 1.19909 8.26849 1.19922 8.59975V11.5997C1.19922 11.8207 1.3787 12.0001 1.59961 12.0001H10.5996C10.8205 12.0001 11 11.8207 11 11.5997V8.59975C11.0001 8.26849 11.2683 8.00014 11.5996 8.00014Z" fill="var(--fill-0, #000001)"/>
<path d="M5.71582 0.138811C5.93822 -0.0462702 6.261 -0.0462702 6.4834 0.138811L9.4834 2.63881C9.73785 2.85086 9.77238 3.22897 9.56055 3.48354C9.34846 3.73804 8.97038 3.77265 8.71582 3.56069L6.69922 1.881V8.59975C6.69922 8.93112 6.43098 9.19936 6.09961 9.19936C5.76824 9.19936 5.5 8.93112 5.5 8.59975V1.881L3.4834 3.56069C3.22883 3.77265 2.85076 3.73804 2.63867 3.48354C2.42684 3.22897 2.46136 2.85086 2.71582 2.63881L5.71582 0.138811Z" fill="var(--fill-0, #000001)"/>
</g>
</svg>
