<svg preserveAspectRatio="none" width="100%" height="100%" overflow="visible" style="display: block;" viewBox="0 0 14 12.2662" fill="none" xmlns="http://www.w3.org/2000/svg">
<path id="Union (Stroke)" d="M12.7998 4.35547C12.7998 2.67465 11.4195 1.2002 10 1.2002C9.16424 1.2002 8.41466 1.56536 7.89941 2.14941L7 3.16895L6.10059 2.14941C5.58534 1.56536 4.83576 1.2002 4 1.2002C2.58047 1.2002 1.2002 2.67465 1.2002 4.35547C1.2002 5.99946 2.19294 7.47662 3.56348 8.71582C4.82774 9.85889 6.25811 10.6541 7 11.0264C7.74189 10.6541 9.17226 9.85889 10.4365 8.71582C11.8071 7.47661 12.7998 5.99946 12.7998 4.35547ZM14 4.35547C14 8.64395 8.85036 11.4608 7.38477 12.1758L7.29102 12.2158C7.06981 12.2945 6.83042 12.2808 6.61523 12.1758C5.14964 11.4608 0 8.64395 0 4.35547C0 2.14633 1.79086 0 4 0C5.19504 0 6.26704 0.524627 7 1.35547C7.73296 0.524627 8.80496 0 10 0C12.2091 0 14 2.14633 14 4.35547Z" fill="var(--fill-0, #000001)"/>
</svg>
