<svg preserveAspectRatio="none" width="100%" height="100%" overflow="visible" style="display: block;" viewBox="0 0 11 13" fill="none" xmlns="http://www.w3.org/2000/svg">
<path id="Subtract" d="M7.7998 8.164e-10C8.91991 8.164e-10 9.48038 -0.000213534 9.9082 0.217773C10.2845 0.409508 10.5905 0.715544 10.7822 1.0918C11.0002 1.51962 11 2.08009 11 3.2002V9.7998C11 10.9199 11.0002 11.4804 10.7822 11.9082C10.5905 12.2845 10.2845 12.5905 9.9082 12.7822C9.48038 13.0002 8.91991 13 7.7998 13H3.2002C2.08009 13 1.51962 13.0002 1.0918 12.7822C0.715544 12.5905 0.409508 12.2845 0.217773 11.9082C-0.000213534 11.4804 8.164e-10 10.9199 8.164e-10 9.7998V3.2002C8.164e-10 2.08009 -0.000213534 1.51962 0.217773 1.0918C0.409508 0.715544 0.715544 0.409508 1.0918 0.217773C1.51962 -0.000213534 2.08009 8.164e-10 3.2002 8.164e-10H7.7998ZM3 8.90039C2.66863 8.90039 2.40039 9.16863 2.40039 9.5C2.40039 9.83137 2.66863 10.0996 3 10.0996H6.5C6.83137 10.0996 7.09961 9.83137 7.09961 9.5C7.09961 9.16863 6.83137 8.90039 6.5 8.90039H3ZM3 5.90039C2.66863 5.90039 2.40039 6.16863 2.40039 6.5C2.40039 6.83137 2.66863 7.09961 3 7.09961H7.50391C7.83521 7.09953 8.10352 6.83132 8.10352 6.5C8.10352 6.16868 7.83521 5.90047 7.50391 5.90039H3ZM3 2.90039C2.66863 2.90039 2.40039 3.16863 2.40039 3.5C2.40039 3.83137 2.66863 4.09961 3 4.09961H5.5C5.83137 4.09961 6.09961 3.83137 6.09961 3.5C6.09961 3.16863 5.83137 2.90039 5.5 2.90039H3Z" fill="var(--fill-0, #000001)"/>
</svg>
