<svg preserveAspectRatio="none" width="100%" height="100%" overflow="visible" style="display: block;" viewBox="0 0 14 10" fill="none" xmlns="http://www.w3.org/2000/svg">
<path id="Union" d="M10.7998 8.164e-10C11.9199 8.164e-10 12.4804 -0.000213534 12.9082 0.217773C13.2845 0.409508 13.5905 0.715544 13.7822 1.0918C14.0002 1.51962 14 2.08009 14 3.2002V6.7998C14 7.91991 14.0002 8.48038 13.7822 8.9082L13.7051 9.0459C13.5129 9.35915 13.2374 9.61445 12.9082 9.78223L12.7402 9.85352C12.3311 9.99951 11.7798 10 10.7998 10H3.2002L2.45801 9.99707C1.91644 9.98855 1.55193 9.95778 1.25977 9.85352L1.0918 9.78223C0.762562 9.61445 0.487067 9.35915 0.294922 9.0459L0.217773 8.9082C-0.000213534 8.48038 8.164e-10 7.91991 8.164e-10 6.7998V3.2002C8.164e-10 2.08009 -0.000213534 1.51962 0.217773 1.0918C0.409508 0.715544 0.715544 0.409508 1.0918 0.217773C1.41263 0.0543026 1.80803 0.0131539 2.45801 0.00292969L3.2002 8.164e-10H10.7998ZM7.80664 5.72461C7.30846 6.01521 6.69154 6.01521 6.19336 5.72461L1.20117 2.8125C1.20075 2.93004 1.2002 3.05865 1.2002 3.2002V6.7998C1.2002 7.3795 1.20132 7.74235 1.22363 8.01562C1.24482 8.27492 1.27868 8.34673 1.28711 8.36328C1.3638 8.51378 1.48622 8.6362 1.63672 8.71289C1.65327 8.72132 1.72508 8.75518 1.98438 8.77637C2.25765 8.79868 2.6205 8.7998 3.2002 8.7998H10.7998C11.3795 8.7998 11.7423 8.79868 12.0156 8.77637C12.2749 8.75518 12.3467 8.72132 12.3633 8.71289C12.5138 8.6362 12.6362 8.51378 12.7129 8.36328C12.7213 8.34673 12.7552 8.27492 12.7764 8.01562C12.7987 7.74235 12.7998 7.3795 12.7998 6.7998V3.2002C12.7998 3.05865 12.7983 2.93004 12.7979 2.8125L7.80664 5.72461ZM3.2002 1.2002C2.6205 1.2002 2.25765 1.20132 1.98438 1.22363C1.72508 1.24482 1.65327 1.27868 1.63672 1.28711C1.52877 1.34212 1.43582 1.42106 1.36328 1.5166L6.79883 4.6875C6.9233 4.76004 7.0767 4.76004 7.20117 4.6875L12.6357 1.5166C12.5633 1.42127 12.471 1.34203 12.3633 1.28711C12.3467 1.27868 12.2749 1.24482 12.0156 1.22363C11.7423 1.20132 11.3795 1.2002 10.7998 1.2002H3.2002Z" fill="var(--fill-0, #000001)"/>
</svg>
