<svg preserveAspectRatio="none" width="100%" height="100%" overflow="visible" style="display: block;" viewBox="0 0 16 16" fill="none" xmlns="http://www.w3.org/2000/svg">
<g id="magic">
<g id="Union">
<path d="M11.0696 2.01478C11.8018 1.28286 12.96 1.23753 13.7454 1.87806L13.8977 2.01478L14.0393 2.15638L14.1761 2.30872C14.8163 3.09415 14.7712 4.25238 14.0393 4.9845L5.20048 13.8234L5.04813 13.9601C4.31503 14.5582 3.25696 14.5579 2.52372 13.9601L2.37235 13.8234L2.23075 13.6818C1.44981 12.9007 1.44974 11.6347 2.23075 10.8536L11.0696 2.01478ZM3.07938 11.7023C2.767 12.0147 2.76707 12.5207 3.07938 12.8331L3.22098 12.9747C3.53344 13.2867 4.03958 13.287 4.35184 12.9747L11.5462 5.7804L10.2737 4.50794L3.07938 11.7023ZM13.0491 2.86341C12.7368 2.5512 12.2307 2.55133 11.9183 2.86341L11.1214 3.66028L12.3948 4.93274L13.1907 4.13587C13.5027 3.82358 13.5026 3.31737 13.1907 3.00501L13.0491 2.86341Z" fill="black"/>
<path d="M12.4808 8.63001C12.596 8.05711 13.4153 8.05706 13.5306 8.63001C13.6365 9.15984 14.0505 9.57479 14.5804 9.68079C15.1542 9.79558 15.1542 10.6158 14.5804 10.7306C14.0506 10.8366 13.6366 11.2507 13.5306 11.7804C13.4158 12.3543 12.5955 12.3542 12.4808 11.7804C12.3747 11.2507 11.9597 10.8366 11.43 10.7306C10.8568 10.6155 10.8568 9.7959 11.43 9.68079C11.9598 9.57482 12.3748 9.15987 12.4808 8.63001Z" fill="black"/>
<path d="M5.48075 1.42982C5.59595 0.856753 6.41541 0.856703 6.53056 1.42982C6.63652 1.95965 7.05054 2.3746 7.58036 2.4806C8.1542 2.59538 8.15422 3.41563 7.58036 3.5304C7.05062 3.63639 6.63659 4.05048 6.53056 4.58021C6.41578 5.15406 5.59554 5.15405 5.48075 4.58021C5.37473 4.05042 4.95978 3.63636 4.42997 3.5304C3.85674 3.41531 3.85677 2.59572 4.42997 2.4806C4.95983 2.37463 5.37478 1.95967 5.48075 1.42982Z" fill="black"/>
</g>
</g>
</svg>
