<svg preserveAspectRatio="none" width="100%" height="100%" overflow="visible" style="display: block;" viewBox="0 0 12.2596 12.2591" fill="none" xmlns="http://www.w3.org/2000/svg">
<g id="Vector">
<path d="M8.44125 0.336792C9.11364 -0.112307 9.9905 -0.112222 10.6629 0.336792C10.8267 0.44623 10.9916 0.61077 11.3202 0.939331C11.6484 1.26759 11.8133 1.43194 11.9227 1.59558C12.3718 2.26804 12.3718 3.14578 11.9227 3.81824C11.8133 3.98194 11.6485 4.14617 11.3202 4.47449L4.55258 11.2421L4.40805 11.3846C4.36906 11.4211 4.33605 11.4481 4.3016 11.4725L4.20687 11.5331C4.17408 11.5512 4.13998 11.5676 4.10531 11.5819L3.97445 11.6239C3.9228 11.6374 3.85999 11.6518 3.77621 11.6708L2.12875 12.0448L1.58578 12.1649C1.10967 12.2645 0.823565 12.2952 0.606288 12.2079L0.513515 12.1649C0.334633 12.0708 0.187691 11.9249 0.0935926 11.746L0.0516004 11.6532C-0.0356773 11.4359 -0.00594303 11.1498 0.0935926 10.6737L0.214686 10.1307L0.58871 8.48328C0.607726 8.3995 0.622038 8.33668 0.635585 8.28503L0.677577 8.15417C0.691901 8.11951 0.708311 8.0854 0.726405 8.05261L0.786952 7.95789C0.811393 7.92343 0.838353 7.89043 0.874843 7.85144L1.01742 7.70691L7.785 0.939331C8.11332 0.611011 8.27754 0.446203 8.44125 0.336792ZM1.78402 8.6366C1.78337 8.63935 1.78277 8.64238 1.78207 8.64539C1.77554 8.67329 1.76834 8.7061 1.75863 8.7489L1.38461 10.3954C1.32467 10.6594 1.28393 10.8549 1.25375 11.0057C1.40462 10.9756 1.60004 10.9348 1.8641 10.8749L3.51058 10.5009C3.55336 10.4911 3.5862 10.4839 3.6141 10.4774C3.61686 10.4767 3.61936 10.4751 3.62191 10.4745C3.62407 10.4724 3.62736 10.47 3.62973 10.4677L9.6932 4.4032L7.85531 2.56531L1.78402 8.6366ZM9.99594 1.33484C9.72707 1.15552 9.37705 1.15539 9.10824 1.33484C9.07025 1.36023 9.01123 1.41143 8.70394 1.71765L10.5409 3.55457C10.8471 3.24729 10.8993 3.18924 10.9246 3.15125C11.1041 2.88245 11.1039 2.53242 10.9246 2.26355C10.8974 2.22281 10.8407 2.15718 10.4715 1.78796C10.1023 1.41873 10.0367 1.36206 9.99594 1.33484Z" fill="#000001"/>
</g>
</svg>
