<svg preserveAspectRatio="none" width="100%" height="100%" overflow="visible" style="display: block;" viewBox="0 0 16 16" fill="none" xmlns="http://www.w3.org/2000/svg">
<g id="Photo">
<g id="Union">
<path fill-rule="evenodd" clip-rule="evenodd" d="M6.25 4.5C7.2165 4.5 8 5.2835 8 6.25C8 7.2165 7.2165 8 6.25 8C5.2835 8 4.5 7.2165 4.5 6.25C4.5 5.2835 5.2835 4.5 6.25 4.5ZM6.25 5.7002C5.94624 5.7002 5.7002 5.94624 5.7002 6.25C5.7002 6.55376 5.94624 6.7998 6.25 6.7998C6.55376 6.7998 6.7998 6.55376 6.7998 6.25C6.7998 5.94624 6.55376 5.7002 6.25 5.7002Z" fill="var(--fill-0, #000001)"/>
<path fill-rule="evenodd" clip-rule="evenodd" d="M11.2998 1.5C12.4199 1.5 12.9804 1.49979 13.4082 1.71777C13.7845 1.90951 14.0905 2.21554 14.2822 2.5918C14.5002 3.01962 14.5 3.58009 14.5 4.7002V11.2998C14.5 12.4199 14.5002 12.9804 14.2822 13.4082L14.2051 13.5459C14.0129 13.8592 13.7374 14.1145 13.4082 14.2822L13.2402 14.3535C12.8311 14.4995 12.2798 14.5 11.2998 14.5H4.7002L3.95801 14.4971C3.41644 14.4886 3.05193 14.4578 2.75977 14.3535L2.5918 14.2822C2.26256 14.1145 1.98707 13.8592 1.79492 13.5459L1.71777 13.4082C1.49979 12.9804 1.5 12.4199 1.5 11.2998V4.7002C1.5 3.58009 1.49979 3.01962 1.71777 2.5918C1.90951 2.21554 2.21554 1.90951 2.5918 1.71777C2.91263 1.5543 3.30803 1.51315 3.95801 1.50293L4.7002 1.5H11.2998ZM6.92383 11.9238C6.68951 12.1581 6.31049 12.1581 6.07617 11.9238L5 10.8477L2.92383 12.9238C2.90352 12.9441 2.88069 12.9608 2.8584 12.9775C2.93157 13.0758 3.02649 13.1567 3.13672 13.2129C3.15327 13.2213 3.22508 13.2552 3.48438 13.2764C3.75765 13.2987 4.1205 13.2998 4.7002 13.2998H11.2998C11.8795 13.2998 12.2423 13.2987 12.5156 13.2764C12.7749 13.2552 12.8467 13.2213 12.8633 13.2129C13.0138 13.1362 13.1362 13.0138 13.2129 12.8633C13.2213 12.8467 13.2552 12.7749 13.2764 12.5156C13.2987 12.2423 13.2998 11.8795 13.2998 11.2998V11.1475L10.5 8.34766L6.92383 11.9238ZM4.7002 2.7002C4.1205 2.7002 3.75765 2.70132 3.48438 2.72363C3.22508 2.74482 3.15327 2.77868 3.13672 2.78711C2.98622 2.8638 2.8638 2.98622 2.78711 3.13672C2.77868 3.15327 2.74482 3.22508 2.72363 3.48438C2.70132 3.75765 2.7002 4.1205 2.7002 4.7002V11.4512L4.57617 9.57617L4.66992 9.49902C4.90282 9.34523 5.21879 9.37114 5.42383 9.57617L6.5 10.6523L10.0762 7.07617L10.1699 6.99902C10.4028 6.84523 10.7188 6.87114 10.9238 7.07617L13.2998 9.45215V4.7002C13.2998 4.1205 13.2987 3.75765 13.2764 3.48438C13.2552 3.22508 13.2213 3.15327 13.2129 3.13672C13.1362 2.98622 13.0138 2.8638 12.8633 2.78711C12.8467 2.77868 12.7749 2.74482 12.5156 2.72363C12.2423 2.70132 11.8795 2.7002 11.2998 2.7002H4.7002Z" fill="var(--fill-0, #000001)"/>
</g>
</g>
</svg>
