<svg preserveAspectRatio="none" width="100%" height="100%" overflow="visible" style="display: block;" viewBox="0 0 16 16" fill="none" xmlns="http://www.w3.org/2000/svg">
<g id="play">
<path id="Ellipse 1483" d="M15 8C15 11.866 11.866 15 8 15C4.13401 15 1 11.866 1 8C1 4.13401 4.13401 1 8 1C11.866 1 15 4.13401 15 8Z" fill="var(--fill-0, #F5F5F5)"/>
<path id="Ellipse 1482 (Stroke)" d="M14.5882 8C14.5882 4.36142 11.6386 1.41176 8 1.41176C4.36142 1.41176 1.41176 4.36142 1.41176 8C1.41176 11.6386 4.36142 14.5882 8 14.5882C11.6386 14.5882 14.5882 11.6386 14.5882 8ZM15 8C15 11.866 11.866 15 8 15C4.13401 15 1 11.866 1 8C1 4.13401 4.13401 1 8 1C11.866 1 15 4.13401 15 8Z" fill="var(--fill-0, #EBEBEB)"/>
<path id="Vector" d="M6.88267 5.08425C6.48785 4.84102 6 5.15349 6 5.6496V10.3504C6 10.8465 6.48785 11.159 6.88267 10.9158L10.6981 8.56535C11.1006 8.31737 11.1006 7.68263 10.6981 7.43465L6.88267 5.08425Z" fill="var(--fill-0, #555555)"/>
</g>
</svg>
