<svg preserveAspectRatio="none" width="100%" height="100%" overflow="visible" style="display: block;" viewBox="0 0 16 16" fill="none" xmlns="http://www.w3.org/2000/svg">
<g id="profile">
<g id="Vector">
<path d="M8.7002 8.00098L9.8125 8.00586C10.7877 8.02119 11.381 8.08288 11.8623 8.32812C12.4263 8.61571 12.8853 9.07459 13.1729 9.63867C13.4994 10.2803 13.5 11.1215 13.5 12.8008V14.0762L13.499 14.4043C13.4976 14.7337 13.2298 15.0009 12.9004 15.001C12.5677 15.001 12.2992 14.7291 12.2998 14.3965V12.8008C12.2998 11.9419 12.2985 11.3686 12.2627 10.9287C12.228 10.5036 12.1663 10.3071 12.1035 10.1836C11.931 9.84527 11.6557 9.57 11.3174 9.39746C11.1939 9.33453 10.9983 9.27309 10.5723 9.23828C10.1323 9.20236 9.55972 9.20118 8.7002 9.20117H7.2998C6.44027 9.20117 5.86771 9.20236 5.42773 9.23828C5.00174 9.27309 4.80612 9.33454 4.68262 9.39746C4.34434 9.57001 4.06895 9.84526 3.89648 10.1836C3.83369 10.3071 3.77204 10.5036 3.7373 10.9287C3.70146 11.3686 3.7002 11.9419 3.7002 12.8008V14.3965C3.70078 14.7291 3.43229 15.001 3.09961 15.001C2.7702 15.0009 2.50237 14.7337 2.50098 14.4043L2.5 14.0762V12.8008C2.50001 11.2264 2.50043 10.3888 2.76953 9.76172L2.82715 9.63867C3.07879 9.14494 3.46187 8.73154 3.93164 8.44336L4.1377 8.32812C4.7794 8.00117 5.61982 8.00096 7.2998 8.00098H8.7002Z" fill="var(--fill-0, black)"/>
<path fill-rule="evenodd" clip-rule="evenodd" d="M8 1C9.65685 1 11 2.34315 11 4C11 5.65685 9.65685 7 8 7C6.34315 7 5 5.65685 5 4C5 2.34315 6.34315 1 8 1ZM8 2.2002C7.00589 2.2002 6.2002 3.00589 6.2002 4C6.2002 4.99411 7.00589 5.7998 8 5.7998C8.99411 5.7998 9.7998 4.99411 9.7998 4C9.7998 3.00589 8.99411 2.2002 8 2.2002Z" fill="var(--fill-0, black)"/>
</g>
</g>
</svg>
