<svg preserveAspectRatio="none" width="100%" height="100%" overflow="visible" style="display: block;" viewBox="0 0 14 12" fill="none" xmlns="http://www.w3.org/2000/svg">
<path id="Union" d="M10.7998 8.16361e-10C11.9199 8.16361e-10 12.4804 -0.00021353 12.9082 0.217773C13.2845 0.409508 13.5905 0.715544 13.7822 1.0918C14.0002 1.51962 14 2.08009 14 3.2002V8.7998C14 9.91991 14.0002 10.4804 13.7822 10.9082L13.7051 11.0459C13.5129 11.3592 13.2374 11.6145 12.9082 11.7822L12.7402 11.8535C12.3311 11.9995 11.7798 12 10.7998 12H3.2002L2.45801 11.9971C1.91644 11.9886 1.55193 11.9578 1.25977 11.8535L1.0918 11.7822C0.762562 11.6145 0.487067 11.3592 0.294922 11.0459L0.217773 10.9082C-0.00021353 10.4804 8.16361e-10 9.91991 8.16361e-10 8.7998V3.2002C8.16361e-10 2.08009 -0.00021353 1.51962 0.217773 1.0918C0.409508 0.715544 0.715544 0.409508 1.0918 0.217773C1.41263 0.0543026 1.80803 0.0131539 2.45801 0.00292969L3.2002 8.16361e-10H10.7998ZM1.20117 9.09961C1.20207 9.51047 1.20544 9.79282 1.22363 10.0156C1.24482 10.2749 1.27868 10.3467 1.28711 10.3633C1.3638 10.5138 1.48622 10.6362 1.63672 10.7129C1.65327 10.7213 1.72508 10.7552 1.98438 10.7764C2.25765 10.7987 2.6205 10.7998 3.2002 10.7998H3.40039V9.09961H1.20117ZM4.59961 9.09961V10.7998H6.40039V9.09961H4.59961ZM7.59961 9.09961V10.7998H9.40039V9.09961H7.59961ZM10.5996 9.09961V10.7998H10.7998C11.3795 10.7998 11.7423 10.7987 12.0156 10.7764C12.2749 10.7552 12.3467 10.7213 12.3633 10.7129C12.5138 10.6362 12.6362 10.5138 12.7129 10.3633C12.7213 10.3467 12.7552 10.2749 12.7764 10.0156C12.7946 9.79282 12.7979 9.51047 12.7988 9.09961H10.5996ZM1.2002 7.90039H6.40039V4.09961H1.2002V7.90039ZM7.59961 7.90039H12.7998V4.09961H7.59961V7.90039ZM3.2002 1.2002C2.6205 1.2002 2.25765 1.20132 1.98438 1.22363C1.72508 1.24482 1.65327 1.27868 1.63672 1.28711C1.48622 1.3638 1.3638 1.48622 1.28711 1.63672C1.27868 1.65327 1.24482 1.72508 1.22363 1.98438C1.20544 2.20718 1.20207 2.48953 1.20117 2.90039H3.40039V1.2002H3.2002ZM4.59961 2.90039H6.40039V1.2002H4.59961V2.90039ZM7.59961 2.90039H9.40039V1.2002H7.59961V2.90039ZM10.5996 2.90039H12.7988C12.7979 2.48953 12.7946 2.20718 12.7764 1.98438C12.7552 1.72508 12.7213 1.65327 12.7129 1.63672C12.6362 1.48622 12.5138 1.3638 12.3633 1.28711C12.3467 1.27868 12.2749 1.24482 12.0156 1.22363C11.7423 1.20132 11.3795 1.2002 10.7998 1.2002H10.5996V2.90039Z" fill="var(--fill-0, black)"/>
</svg>
