<svg preserveAspectRatio="none" width="100%" height="100%" overflow="visible" style="display: block;" viewBox="0 0 4.92041 7" fill="none" xmlns="http://www.w3.org/2000/svg">
<path id="Vector" d="M0.583141 8.67077e-06C0.787464 -0.00147536 1.03104 0.18754 1.51754 0.565931L4.33567 2.7573C4.66079 3.01017 4.82353 3.13735 4.88208 3.29108C4.93319 3.42557 4.93318 3.57443 4.88208 3.70892C4.82353 3.86265 4.66078 3.98984 4.33567 4.2427L1.51754 6.43407C1.03104 6.81246 0.787464 7.00148 0.583141 6.99999C0.405423 6.99848 0.237807 6.91656 0.127419 6.7773C0.000527041 6.61698 0 6.30835 0 5.69137V1.30863C0 0.691648 0.000527041 0.383017 0.127419 0.222704C0.237807 0.0834407 0.405425 0.00152084 0.583141 8.67077e-06Z" fill="var(--fill-0, #000001)"/>
</svg>
