<svg preserveAspectRatio="none" width="100%" height="100%" overflow="visible" style="display: block;" viewBox="0 0 12.5996 12.5996" fill="none" xmlns="http://www.w3.org/2000/svg">
<g id="Union">
<path d="M5.5 0C8.53757 0 11 2.46243 11 5.5C11 6.80276 10.5451 7.99814 9.78809 8.94043L12.4238 11.5762C12.6581 11.8105 12.6581 12.1895 12.4238 12.4238C12.1895 12.6581 11.8105 12.6581 11.5762 12.4238L8.94043 9.78809C7.99814 10.5451 6.80276 11 5.5 11C2.46243 11 0 8.53757 0 5.5C0 2.46243 2.46243 0 5.5 0ZM5.5 1.2002C3.12518 1.2002 1.2002 3.12518 1.2002 5.5C1.2002 7.87482 3.12518 9.7998 5.5 9.7998C7.87482 9.7998 9.7998 7.87482 9.7998 5.5C9.7998 3.12518 7.87482 1.2002 5.5 1.2002Z" fill="#000001"/>
</g>
</svg>
