<svg preserveAspectRatio="none" width="100%" height="100%" overflow="visible" style="display: block;" viewBox="0 0 13.4929 12.2007" fill="none" xmlns="http://www.w3.org/2000/svg">
<path id="Vector" d="M8.16391 0.0453983C8.38805 -0.0473077 8.6457 0.00473204 8.81723 0.176258L13.3172 4.67626C13.5514 4.91058 13.5515 5.28964 13.3172 5.52391L8.81723 10.0239C8.64572 10.1954 8.38803 10.2474 8.16391 10.1548C7.93974 10.0619 7.79384 9.84272 7.79379 9.60009V7.56395C7.66571 7.5424 7.50553 7.52157 7.3143 7.5161C6.71966 7.49919 5.8112 7.60578 4.64535 8.14501C3.53504 8.65865 2.73682 9.55931 2.20785 10.3638C1.94569 10.7625 1.75583 11.1281 1.63266 11.3921C1.5714 11.5234 1.52646 11.6288 1.49789 11.6997C1.48378 11.7347 1.47399 11.7619 1.46762 11.7788C1.46447 11.7872 1.46201 11.794 1.46078 11.7974C1.46028 11.7987 1.45995 11.7999 1.45981 11.8003C1.37471 12.041 1.14578 12.2019 0.890472 12.2007C0.666523 12.1993 0.464008 12.0732 0.362151 11.8794L0.325042 11.7925V11.7915L0.324066 11.7895C0.323763 11.7886 0.323446 11.7869 0.323089 11.7856C0.322106 11.7827 0.32066 11.7785 0.319183 11.7739C0.316007 11.7641 0.31164 11.7497 0.306487 11.7329C0.296119 11.6991 0.281815 11.6512 0.265472 11.5913C0.232542 11.4705 0.189568 11.2974 0.148284 11.0845C0.06595 10.6595 -0.0130019 10.0641 0.00179989 9.38036C0.0315083 8.01119 0.439818 6.24875 1.98129 4.82274C3.46751 3.44787 5.08015 2.86757 6.31821 2.63134C6.91158 2.51814 7.42101 2.48402 7.79379 2.47899V0.600086C7.79379 0.357408 7.9397 0.138267 8.16391 0.0453983ZM8.99301 3.10009C8.99301 3.11029 8.98961 3.12028 8.9891 3.13036C8.98836 3.14476 8.99091 3.15977 8.9891 3.1743C8.98765 3.18596 8.98339 3.19707 8.98129 3.20848C8.97954 3.21803 8.97763 3.22742 8.97543 3.2368C8.96929 3.26308 8.96138 3.28829 8.952 3.31298C8.9476 3.32451 8.9434 3.33598 8.93832 3.34716C8.92702 3.37211 8.91368 3.39556 8.89926 3.41845C8.89423 3.42642 8.88902 3.43417 8.88364 3.44188C8.8676 3.46484 8.84985 3.48596 8.8309 3.50634C8.82461 3.51311 8.81894 3.52037 8.81235 3.52684C8.75972 3.57846 8.69868 3.62045 8.63071 3.64989C8.62315 3.65315 8.61498 3.65475 8.60727 3.6577C8.57931 3.66847 8.55095 3.67757 8.52133 3.68407C8.51422 3.68562 8.50705 3.68668 8.49985 3.68798C8.48041 3.6915 8.4612 3.69714 8.44125 3.69872L8.40903 3.69774C8.40382 3.69788 8.39864 3.69969 8.3934 3.6997C8.38424 3.6997 8.37512 3.69717 8.36606 3.69677L8.32016 3.69579H8.31918C8.31589 3.69543 8.30865 3.69469 8.29965 3.69384C8.28134 3.6921 8.2515 3.68953 8.21176 3.687C8.1309 3.68188 8.00724 3.67708 7.84946 3.67821C7.53315 3.6805 7.07873 3.70781 6.54282 3.81005C5.47157 4.01449 4.08168 4.51503 2.79672 5.7036C1.56681 6.84139 1.22713 8.24845 1.202 9.40673C1.19981 9.50823 1.20167 9.60786 1.20395 9.70458C1.79988 8.79827 2.75211 7.6989 4.14145 7.05614C5.47544 6.43914 6.56819 6.2947 7.34848 6.31688C7.73671 6.32797 8.04438 6.38056 8.26157 6.43309C8.36973 6.45929 8.4561 6.48504 8.5184 6.50634C8.54943 6.51695 8.57533 6.52715 8.59457 6.53466C8.60389 6.5383 8.61253 6.54175 8.61899 6.54442C8.62202 6.54562 8.62541 6.54634 8.62778 6.54735C8.62868 6.54788 8.62987 6.54894 8.63071 6.5493L8.63266 6.55028L8.63364 6.55126L8.63461 6.55028C8.69951 6.57877 8.75485 6.61941 8.80356 6.66552C8.80826 6.66996 8.81365 6.67362 8.81821 6.67821C8.83575 6.69595 8.85099 6.71525 8.86606 6.73485C8.87531 6.74682 8.88506 6.75832 8.8934 6.77098C8.90488 6.78852 8.91411 6.8071 8.92367 6.82567C8.9319 6.84156 8.94128 6.85685 8.94809 6.87352C8.95684 6.89504 8.96237 6.91752 8.9686 6.93993C8.97264 6.95451 8.97737 6.96887 8.98032 6.98387C8.98573 7.01121 8.98753 7.03887 8.9891 7.06688C8.98971 7.07789 8.99301 7.08893 8.99301 7.10009V8.15282L12.0457 5.10009L8.99301 2.04735V3.10009Z" fill="var(--fill-0, #000001)"/>
</svg>
