<svg preserveAspectRatio="none" width="100%" height="100%" overflow="visible" style="display: block;" viewBox="0 0 16 16" fill="none" xmlns="http://www.w3.org/2000/svg">
<g id="Star">
<g id="Vector">
<path d="M6.62681 1.89173C7.21382 0.702799 8.90908 0.702654 9.49595 1.89173L10.7176 4.36732C10.7759 4.48526 10.8892 4.56715 11.0194 4.58607L13.7508 4.98255C15.0629 5.1734 15.5868 6.78641 14.6376 7.71205L12.661 9.6388C12.5669 9.73056 12.5237 9.86275 12.5458 9.99232L13.0126 12.714C13.2364 14.0207 11.8649 15.0171 10.6913 14.4005L8.2479 13.1154C8.13147 13.0542 7.99133 13.0543 7.87486 13.1154L5.4315 14.4005C4.25787 15.0172 2.88638 14.0208 3.11021 12.714L3.57701 9.99232C3.59899 9.86281 3.55584 9.73054 3.46177 9.6388L1.48521 7.71205C0.535581 6.78639 1.05958 5.17325 2.37193 4.98255L5.10337 4.58607C5.23345 4.56707 5.34688 4.48517 5.40513 4.36732L6.62681 1.89173ZM8.41978 2.42298C8.27308 2.1258 7.84982 2.12595 7.70298 2.42298L6.4813 4.89759C6.24829 5.36973 5.79724 5.69776 5.27622 5.77357L2.54478 6.17006C2.21669 6.21773 2.08569 6.62126 2.3231 6.85267L4.29966 8.77943C4.67656 9.14691 4.84848 9.67661 4.75962 10.1954L4.29283 12.9161C4.2368 13.2428 4.57952 13.492 4.8729 13.338L7.31724 12.0538C7.7832 11.8091 8.3396 11.809 8.80552 12.0538L11.2499 13.338C11.5432 13.4918 11.886 13.2427 11.8299 12.9161L11.3631 10.1954C11.2742 9.67655 11.4461 9.14693 11.8231 8.77943L13.7997 6.85267C14.0367 6.62128 13.9058 6.21788 13.578 6.17006L10.8465 5.77357C10.3254 5.69785 9.87452 5.36982 9.64146 4.89759L8.41978 2.42298Z" fill="black"/>
</g>
</g>
</svg>
