<svg preserveAspectRatio="none" width="100%" height="100%" overflow="visible" style="display: block;" viewBox="0 0 16 16" fill="none" xmlns="http://www.w3.org/2000/svg">
<g id="star_fill">
<path id="Vector" d="M6.62605 1.89154C7.21292 0.702612 8.90809 0.702868 9.49519 1.89154L10.7169 4.36713C10.7751 4.48491 10.8886 4.56682 11.0186 4.58588L13.7501 4.98236C15.0624 5.17306 15.5864 6.7862 14.6368 7.71185L12.6602 9.63861C12.5662 9.73029 12.5231 9.86269 12.545 9.99213L13.0118 12.7138C13.2356 14.0206 11.8641 15.017 10.6905 14.4003L8.24715 13.1152C8.13072 13.0542 7.99045 13.054 7.8741 13.1152L5.43074 14.4003C4.25716 15.0168 2.88563 14.0205 3.10945 12.7138L3.57625 9.99213C3.59821 9.86261 3.55511 9.73033 3.46101 9.63861L1.48445 7.71185C0.535506 6.78623 1.05932 5.17331 2.37117 4.98236L5.10261 4.58588C5.23282 4.56696 5.34608 4.48507 5.40437 4.36713L6.62605 1.89154Z" fill="var(--fill-0, #000001)"/>
</g>
</svg>
