<svg preserveAspectRatio="none" width="100%" height="100%" overflow="visible" style="display: block;" viewBox="0 0 12 13.7998" fill="none" xmlns="http://www.w3.org/2000/svg">
<g id="Union">
<path d="M9.09961 0.803711C10.0236 0.805436 10.5203 0.822886 10.9082 1.02051C11.2845 1.21224 11.5905 1.51828 11.7822 1.89453C12.0002 2.32235 12 2.88282 12 4.00293V10.5996C12 11.7197 12.0002 12.2802 11.7822 12.708C11.5905 13.0843 11.2845 13.3903 10.9082 13.582C10.4804 13.8 9.91991 13.7998 8.7998 13.7998H3.2002C2.08009 13.7998 1.51962 13.8 1.0918 13.582C0.715544 13.3903 0.409508 13.0843 0.217773 12.708C-0.000213534 12.2802 8.164e-10 11.7197 8.164e-10 10.5996V4.00293C8.164e-10 2.88282 -0.000213534 2.32235 0.217773 1.89453C0.409508 1.51828 0.715544 1.21224 1.0918 1.02051C1.47965 0.822886 1.97641 0.805436 2.90039 0.803711V2.2998C2.90039 2.90732 3.39249 3.39941 4 3.39941H8C8.60751 3.39941 9.09961 2.90732 9.09961 2.2998V0.803711Z" fill="var(--fill-0, #000001)"/>
<path d="M7.2002 0C7.47994 2.94453e-09 7.61965 0.000288937 7.72656 0.0546875C7.82054 0.102571 7.89737 0.178524 7.94531 0.272461C7.99981 0.379417 8 0.519779 8 0.799805V1.52734C8 1.80737 7.99981 1.94773 7.94531 2.05469C7.89737 2.14864 7.82055 2.22457 7.72656 2.27246C7.61965 2.32687 7.47996 2.32715 7.2002 2.32715H4.7998C4.52004 2.32715 4.38035 2.32687 4.27344 2.27246C4.17945 2.22457 4.10263 2.14864 4.05469 2.05469C4.00019 1.94773 4 1.80737 4 1.52734V0.799805C4 0.519778 4.00019 0.379417 4.05469 0.272461C4.10263 0.178524 4.17946 0.102571 4.27344 0.0546875C4.38035 0.000288934 4.52006 2.94274e-09 4.7998 0H7.2002Z" fill="var(--fill-0, #000001)"/>
</g>
</svg>
