<svg preserveAspectRatio="none" width="100%" height="100%" overflow="visible" style="display: block;" viewBox="0 0 12 14.0996" fill="none" xmlns="http://www.w3.org/2000/svg">
<path id="Union" d="M8 0C8.60751 0 9.09961 0.492096 9.09961 1.09961C10.0235 1.10131 10.5204 1.11977 10.9082 1.31738C11.2845 1.50912 11.5905 1.81515 11.7822 2.19141C12.0002 2.61923 12 3.1797 12 4.2998V10.8994C12 12.0195 12.0002 12.58 11.7822 13.0078L11.7051 13.1455C11.5129 13.4588 11.2374 13.7141 10.9082 13.8818L10.7402 13.9531C10.3311 14.0991 9.77981 14.0996 8.7998 14.0996H3.2002L2.45801 14.0967C1.91644 14.0882 1.55193 14.0574 1.25977 13.9531L1.0918 13.8818C0.762562 13.7141 0.487067 13.4588 0.294922 13.1455L0.217773 13.0078C-0.000213534 12.58 8.164e-10 12.0195 8.164e-10 10.8994V4.2998C8.164e-10 3.1797 -0.000213534 2.61923 0.217773 2.19141C0.409508 1.81515 0.715544 1.50912 1.0918 1.31738C1.41263 1.15391 1.80803 1.11276 2.45801 1.10254L2.90039 1.09961C2.90039 0.492096 3.39249 0 4 0H8ZM9.09961 2.59961C9.09961 3.20712 8.60751 3.69922 8 3.69922H4C3.39249 3.69922 2.90039 3.20712 2.90039 2.59961V2.2998C2.48953 2.30071 2.20718 2.30505 1.98437 2.32324C1.72508 2.34443 1.65327 2.37829 1.63672 2.38672C1.48622 2.46341 1.3638 2.58583 1.28711 2.73633C1.27868 2.75288 1.24482 2.82469 1.22363 3.08398C1.20132 3.35726 1.2002 3.72011 1.2002 4.2998V10.8994C1.2002 11.4791 1.20132 11.842 1.22363 12.1152C1.24482 12.3745 1.27868 12.4463 1.28711 12.4629C1.3638 12.6134 1.48622 12.7358 1.63672 12.8125C1.65327 12.8209 1.72508 12.8548 1.98437 12.876C2.25765 12.8983 2.6205 12.8994 3.2002 12.8994H8.7998C9.3795 12.8994 9.74235 12.8983 10.0156 12.876C10.2749 12.8548 10.3467 12.8209 10.3633 12.8125C10.5138 12.7358 10.6362 12.6134 10.7129 12.4629C10.7213 12.4463 10.7552 12.3745 10.7764 12.1152C10.7987 11.842 10.7998 11.4791 10.7998 10.8994V4.2998C10.7998 3.72011 10.7987 3.35726 10.7764 3.08398C10.7552 2.82469 10.7213 2.75288 10.7129 2.73633C10.6362 2.58583 10.5138 2.46341 10.3633 2.38672C10.3467 2.37829 10.2749 2.34443 10.0156 2.32324C9.79282 2.30505 9.51047 2.30071 9.09961 2.2998V2.59961ZM4.09961 2.5H7.90039V1.19922H4.09961V2.5Z" fill="var(--fill-0, #000001)"/>
</svg>
