<svg preserveAspectRatio="none" width="100%" height="100%" overflow="visible" style="display: block;" viewBox="0 0 16 16" fill="none" xmlns="http://www.w3.org/2000/svg">
<g id="text">
<path id="Union" d="M13.2998 2.40039C13.7416 2.40039 14.0996 2.75837 14.0996 3.2002V5.5C14.0996 5.83137 13.8314 6.09961 13.5 6.09961C13.1686 6.09961 12.9004 5.83137 12.9004 5.5V3.59961H8.59961V12.9004H10.5C10.8314 12.9004 11.0996 13.1686 11.0996 13.5C11.0996 13.8314 10.8314 14.0996 10.5 14.0996H5.5C5.16863 14.0996 4.90039 13.8314 4.90039 13.5C4.90039 13.1686 5.16863 12.9004 5.5 12.9004H7.40039V3.59961H3.09961V5.5C3.09961 5.83137 2.83137 6.09961 2.5 6.09961C2.16863 6.09961 1.90039 5.83137 1.90039 5.5V3.2002C1.90039 2.75837 2.25837 2.40039 2.7002 2.40039H13.2998Z" fill="var(--fill-0, black)"/>
</g>
</svg>
