<svg preserveAspectRatio="none" width="100%" height="100%" overflow="visible" style="display: block;" viewBox="0 0 12.8126 13.4414" fill="none" xmlns="http://www.w3.org/2000/svg">
<g id="Union">
<path d="M9.09375 7.88867C9.27686 7.70556 9.54573 7.65934 9.77148 7.75098C9.809 7.76622 9.84532 7.78577 9.87988 7.80859L9.97754 7.88867L12.6299 10.54C12.8737 10.784 12.8735 11.1798 12.6299 11.4238C12.3859 11.6679 11.9902 11.6677 11.7461 11.4238L10.2207 9.89941V12.8164C10.2204 13.1614 9.94072 13.4414 9.5957 13.4414C9.25091 13.4411 8.97097 13.1612 8.9707 12.8164V9.7793L7.32617 11.4238C7.08209 11.6679 6.68644 11.6679 6.44238 11.4238C6.19837 11.1798 6.19837 10.7841 6.44238 10.54L9.09375 7.88867Z" fill="var(--fill-0, #000001)"/>
<path d="M10 0C11.1046 0 12 0.895431 12 2V6.39941C12 6.73068 11.7316 6.99974 11.4004 7C11.069 7 10.7998 6.73084 10.7998 6.39941V2C10.7998 1.55817 10.4418 1.2002 10 1.2002H2C1.55817 1.2002 1.2002 1.55817 1.2002 2V5.28613L3.24316 3.24316L3.33398 3.16797C3.56003 3.01673 3.86705 3.03533 4.07422 3.22656L6.07715 5.07422L7.57617 3.57617L7.66699 3.50098C7.89302 3.34984 8.2001 3.36838 8.40723 3.55957L9.50977 4.57715C9.75319 4.80185 9.76851 5.1813 9.54395 5.4248C9.31918 5.6683 8.93978 5.68375 8.69629 5.45898L8.32812 5.12012L8.01562 4.83105L7.42383 5.42383L6.95801 5.88867L7.86621 6.72656C8.10917 6.95139 8.12401 7.33091 7.89941 7.57422C7.67464 7.81725 7.29511 7.83193 7.05176 7.60742L3.68359 4.49805L1.2002 6.98145V10C1.2002 10.4418 1.55817 10.7998 2 10.7998H4.40039C4.73159 10.8001 5 11.0691 5 11.4004C4.99974 11.7314 4.73143 11.9997 4.40039 12H2C0.96435 12 0.113005 11.2128 0.0107422 10.2041L0 10V2C1.28853e-07 0.895431 0.895431 2.14752e-08 2 0H10Z" fill="var(--fill-0, #000001)"/>
</g>
</svg>
