<svg preserveAspectRatio="none" width="100%" height="100%" overflow="visible" style="display: block;" viewBox="0 0 14 11" fill="none" xmlns="http://www.w3.org/2000/svg">
<path id="Union" d="M10.7998 8.164e-10C11.9199 8.164e-10 12.4804 -0.000213534 12.9082 0.217773C13.2845 0.409508 13.5905 0.715544 13.7822 1.0918C14.0002 1.51962 14 2.08009 14 3.2002V7.7998C14 8.91991 14.0002 9.48038 13.7822 9.9082L13.7051 10.0459C13.5129 10.3592 13.2374 10.6145 12.9082 10.7822L12.7402 10.8535C12.3311 10.9995 11.7798 11 10.7998 11H3.2002L2.45801 10.9971C1.91644 10.9886 1.55193 10.9578 1.25977 10.8535L1.0918 10.7822C0.762562 10.6145 0.487067 10.3592 0.294922 10.0459L0.217773 9.9082C-0.000213534 9.48038 8.164e-10 8.91991 8.164e-10 7.7998V3.2002C8.164e-10 2.08009 -0.000213534 1.51962 0.217773 1.0918C0.409508 0.715544 0.715544 0.409508 1.0918 0.217773C1.41263 0.0543026 1.80803 0.0131539 2.45801 0.00292969L3.2002 8.164e-10H10.7998ZM3.2002 1.2002C2.6205 1.2002 2.25765 1.20132 1.98437 1.22363C1.72508 1.24482 1.65327 1.27868 1.63672 1.28711C1.48622 1.3638 1.3638 1.48622 1.28711 1.63672C1.27868 1.65327 1.24482 1.72508 1.22363 1.98438C1.20132 2.25765 1.2002 2.6205 1.2002 3.2002V7.7998C1.2002 8.3795 1.20132 8.74235 1.22363 9.01563C1.24482 9.27492 1.27868 9.34673 1.28711 9.36328C1.3638 9.51378 1.48622 9.6362 1.63672 9.71289C1.65327 9.72132 1.72508 9.75518 1.98437 9.77637C2.25765 9.79868 2.6205 9.7998 3.2002 9.7998H10.7998C11.3795 9.7998 11.7423 9.79868 12.0156 9.77637C12.2749 9.75518 12.3467 9.72132 12.3633 9.71289C12.5138 9.6362 12.6362 9.51378 12.7129 9.36328C12.7213 9.34673 12.7552 9.27492 12.7764 9.01563C12.7987 8.74235 12.7998 8.3795 12.7998 7.7998V3.2002C12.7998 2.6205 12.7987 2.25765 12.7764 1.98438C12.7552 1.72508 12.7213 1.65327 12.7129 1.63672C12.6362 1.48622 12.5138 1.3638 12.3633 1.28711C12.3467 1.27868 12.2749 1.24482 12.0156 1.22363C11.7423 1.20132 11.3795 1.2002 10.7998 1.2002H3.2002ZM5.5 3.50879C5.50012 3.0776 5.98103 2.82038 6.33984 3.05957L9.32617 5.05078C9.64681 5.26452 9.64681 5.73548 9.32617 5.94922L6.33984 7.94043C5.98103 8.17962 5.50012 7.9224 5.5 7.49121V3.50879Z" fill="var(--fill-0, #000001)"/>
</svg>
