<svg preserveAspectRatio="none" width="100%" height="100%" overflow="visible" style="display: block;" viewBox="0 0 14.0012 12.3528" fill="none" xmlns="http://www.w3.org/2000/svg">
<path id="Vector" d="M5.09216 7.81389C5.02901 7.84582 4.95774 7.86425 4.88205 7.86425C4.7071 7.86425 4.55494 7.76785 4.47509 7.62552L4.44447 7.55838L3.17001 4.76192C3.15626 4.73138 3.14766 4.69712 3.14766 4.66372C3.14766 4.53478 3.25213 4.43021 3.38107 4.43021C3.43343 4.43021 3.48172 4.44753 3.52078 4.47656L5.02458 5.54721C5.13453 5.61925 5.26573 5.66136 5.40683 5.66136C5.49122 5.66136 5.57142 5.64569 5.64633 5.61837L12.7189 2.47056C11.4513 0.976522 9.36333 0 7.00055 0C3.13416 0 0 2.61185 0 5.83377C0 7.59176 0.943025 9.17402 2.41889 10.2434C2.53737 10.3278 2.61479 10.4667 2.61479 10.6235C2.61479 10.6752 2.60366 10.7228 2.59026 10.7721C2.47237 11.212 2.2836 11.9159 2.27481 11.9489C2.26012 12.0041 2.23706 12.0617 2.23706 12.1195C2.23706 12.2484 2.34163 12.3528 2.47056 12.3528C2.52136 12.3528 2.5626 12.3341 2.6054 12.3094L4.13799 11.4247C4.25326 11.358 4.37532 11.3169 4.50973 11.3169C4.58125 11.3169 4.6504 11.3279 4.71557 11.3478C5.43049 11.5534 6.20188 11.6678 7.00057 11.6678C10.8668 11.6678 14.0012 9.05584 14.0012 5.8338C14.0012 4.858 13.7121 3.93888 13.2038 3.13053L5.14322 7.78439L5.09216 7.81389Z" fill="var(--fill-0, #00C800)"/>
</svg>
