<svg preserveAspectRatio="none" width="100%" height="100%" overflow="visible" style="display: block;" viewBox="0 0 14 11" fill="none" xmlns="http://www.w3.org/2000/svg">
<path id="Vector" d="M9.47724 3.32817C9.63832 3.32817 9.79718 3.33966 9.9545 3.35633C9.52589 1.4309 7.3914 0 4.95521 0C2.23136 0 0 1.79095 0 4.06492C0 5.37731 0.742519 6.4552 1.98285 7.29123L1.48732 8.72938L3.21937 7.8913C3.83954 8.00946 4.33656 8.13131 4.95521 8.13131C5.11063 8.13131 5.26452 8.12393 5.41767 8.11209C5.32076 7.7928 5.26452 7.45795 5.26452 7.11085C5.26454 5.02283 7.1235 3.32817 9.47724 3.32817ZM6.81342 2.0321C7.18657 2.0321 7.43356 2.26916 7.43356 2.62884C7.43356 2.98702 7.18657 3.22705 6.81342 3.22705C6.44176 3.22705 6.06937 2.98702 6.06937 2.62884C6.06937 2.26916 6.44178 2.0321 6.81342 2.0321ZM3.34553 3.22703C2.97388 3.22703 2.59919 2.98701 2.59919 2.62882C2.59919 2.26914 2.97388 2.03208 3.34553 2.03208C3.71677 2.03208 3.96416 2.26914 3.96416 2.62882C3.96416 2.98702 3.71677 3.22703 3.34553 3.22703ZM14 7.05343C14 5.14246 12.0175 3.58487 9.79111 3.58487C7.43356 3.58487 5.57689 5.14246 5.57689 7.05343C5.57689 8.96718 7.43356 10.5214 9.79111 10.5214C10.2843 10.5214 10.7822 10.4021 11.2776 10.2822L12.637 11L12.2641 9.80579C13.259 9.08571 14 8.13131 14 7.05343ZM8.42461 6.4552C8.17801 6.4552 7.9291 6.21851 7.9291 5.977C7.9291 5.73883 8.17801 5.49917 8.42461 5.49917C8.79929 5.49917 9.04477 5.73883 9.04477 5.977C9.04477 6.21851 8.79929 6.4552 8.42461 6.4552ZM11.15 6.4552C10.9053 6.4552 10.6579 6.21851 10.6579 5.977C10.6579 5.73883 10.9053 5.49917 11.15 5.49917C11.5216 5.49917 11.7701 5.73883 11.7701 5.977C11.7701 6.21851 11.5216 6.4552 11.15 6.4552Z" fill="var(--fill-0, #000001)"/>
</svg>
