<svg preserveAspectRatio="none" width="100%" height="100%" overflow="visible" style="display: block;" viewBox="0 0 15 11.7857" fill="none" xmlns="http://www.w3.org/2000/svg">
<g id="Vector">
<path d="M11.9968 4.15119C13.7462 4.68973 15 6.14559 15 7.85714C15 8.51256 14.8155 9.14587 14.4681 9.71159C14.4366 9.76282 14.3803 9.8486 14.2976 9.97186L14.5545 10.7937C14.6689 11.1604 14.2838 11.4968 13.8638 11.3968L12.9208 11.1722L12.8113 11.2285C12.1132 11.5941 11.3141 11.7867 10.5 11.7857C9.129 11.7857 7.90125 11.2504 7.07569 10.4063C6.74651 10.4529 6.41355 10.4763 6.08006 10.4762C4.96669 10.4762 3.89569 10.2176 2.96044 9.735C2.92819 9.7183 2.84775 9.6777 2.72082 9.61387L1.305 9.94616C0.884629 10.0449 0.500629 9.70717 0.616879 9.34099L0.999941 8.13247C0.904128 7.99408 0.810928 7.85432 0.720379 7.71326C0.246584 6.9539 -0.00112108 6.1028 3.81428e-06 5.23809C3.81428e-06 2.34356 2.724 0 6.08006 0C8.89106 0 11.3181 1.65753 11.9831 3.97915C11.9998 4.03693 12.0038 4.09504 11.9968 4.15102V4.15119ZM10.7996 3.93708C10.1522 2.20016 8.259 0.982143 6.08006 0.982143C3.34163 0.982143 1.125 2.88914 1.125 5.23809C1.125 5.94818 1.32713 6.63208 1.7085 7.24379C1.75913 7.32498 1.88738 7.51552 2.08857 7.8077C2.12786 7.86479 2.15344 7.92826 2.16376 7.99425C2.17407 8.06024 2.1689 8.12737 2.14857 8.19156L1.96369 8.77462L2.65332 8.61273C2.79704 8.579 2.95022 8.59636 3.07932 8.66102C3.33019 8.78674 3.47963 8.86204 3.53288 8.88954C4.3044 9.28699 5.18424 9.4958 6.08006 9.49404C6.18825 9.49404 6.29606 9.4911 6.40331 9.4852C6.13663 8.97406 5.99908 8.4188 6 7.85714C6 5.68742 8.01469 3.92857 10.5 3.92857C10.6007 3.92857 10.7006 3.93152 10.7996 3.93708ZM13.1499 10.0303C13.1301 9.96684 13.1251 9.90056 13.1352 9.83538C13.1453 9.7702 13.1702 9.70745 13.2086 9.65086C13.3003 9.51756 13.3896 9.38304 13.4766 9.24736C13.7391 8.81988 13.876 8.34219 13.875 7.85714C13.875 6.22989 12.3639 4.91071 10.5 4.91071C8.63606 4.91071 7.125 6.22989 7.125 7.85714C7.125 9.48439 8.63606 10.8036 10.5 10.8036C11.1103 10.8045 11.7093 10.6602 12.2327 10.3862C12.2715 10.3659 12.3784 10.3114 12.5582 10.2198C12.6227 10.1871 12.694 10.1658 12.768 10.1574C12.8421 10.1489 12.9172 10.1534 12.9893 10.1706L13.2101 10.2231L13.1499 10.0303ZM4.3125 4.41964C4.11359 4.41964 3.92283 4.35066 3.78217 4.22787C3.64152 4.10507 3.5625 3.93853 3.5625 3.76488C3.5625 3.59123 3.64152 3.42468 3.78217 3.30189C3.92283 3.1791 4.11359 3.11012 4.3125 3.11012C4.51142 3.11012 4.70218 3.1791 4.84283 3.30189C4.98348 3.42468 5.0625 3.59123 5.0625 3.76488C5.0625 3.93853 4.98348 4.10507 4.84283 4.22787C4.70218 4.35066 4.51142 4.41964 4.3125 4.41964ZM7.6875 4.41964C7.48859 4.41964 7.29782 4.35066 7.15717 4.22787C7.01652 4.10507 6.9375 3.93853 6.9375 3.76488C6.9375 3.59123 7.01652 3.42468 7.15717 3.30189C7.29782 3.1791 7.48859 3.11012 7.6875 3.11012C7.88641 3.11012 8.07718 3.1791 8.21783 3.30189C8.35848 3.42468 8.4375 3.59123 8.4375 3.76488C8.4375 3.93853 8.35848 4.10507 8.21783 4.22787C8.07718 4.35066 7.88641 4.41964 7.6875 4.41964ZM9.1875 7.52976C9.03832 7.52976 8.89524 7.47802 8.78975 7.38593C8.68426 7.29383 8.625 7.16893 8.625 7.03869C8.625 6.90845 8.68426 6.78354 8.78975 6.69145C8.89524 6.59935 9.03832 6.54762 9.1875 6.54762C9.33669 6.54762 9.47976 6.59935 9.58525 6.69145C9.69074 6.78354 9.75 6.90845 9.75 7.03869C9.75 7.16893 9.69074 7.29383 9.58525 7.38593C9.47976 7.47802 9.33669 7.52976 9.1875 7.52976ZM11.8125 7.52976C11.6633 7.52976 11.5202 7.47802 11.4148 7.38593C11.3093 7.29383 11.25 7.16893 11.25 7.03869C11.25 6.90845 11.3093 6.78354 11.4148 6.69145C11.5202 6.59935 11.6633 6.54762 11.8125 6.54762C11.9617 6.54762 12.1048 6.59935 12.2102 6.69145C12.3157 6.78354 12.375 6.90845 12.375 7.03869C12.375 7.16893 12.3157 7.29383 12.2102 7.38593C12.1048 7.47802 11.9617 7.52976 11.8125 7.52976Z" fill="var(--fill-0, #000001)" style="mix-blend-mode:luminosity"/>
</g>
</svg>
