<svg preserveAspectRatio="none" width="100%" height="100%" overflow="visible" style="display: block;" viewBox="0 0 13.9531 13.0312" fill="none" xmlns="http://www.w3.org/2000/svg">
<path id="Union" d="M5 1.05958e-07C5.46465 1.05958e-07 5.69743 -0.000343371 5.89063 0.038086C6.68371 0.195992 7.30401 0.816288 7.46191 1.60938C7.50034 1.80257 7.5 2.03534 7.5 2.5C7.5 2.96466 7.50034 3.19743 7.46191 3.39063L7.42676 3.53711C7.22566 4.25933 6.63418 4.81387 5.89063 4.96191L5.73535 4.9834C5.67902 4.98883 5.61723 4.99271 5.54688 4.99512L5 5H4.34961V7.48828C4.34961 7.98281 4.35034 8.32245 4.36914 8.58691C4.38755 8.84569 4.42144 8.98664 4.46582 9.08887C4.60716 9.41431 4.86694 9.67409 5.19238 9.81543C5.29461 9.85981 5.43557 9.8937 5.69434 9.91211C5.89499 9.92638 6.13892 9.92866 6.46094 9.92969C6.46621 9.8155 6.47456 9.72432 6.49121 9.64063C6.64912 8.84754 7.26941 8.22724 8.0625 8.06934C8.2557 8.03091 8.48847 8.03125 8.95313 8.03125H11.4531C11.9178 8.03125 12.1506 8.03091 12.3438 8.06934C13.1368 8.22724 13.7571 8.84754 13.915 9.64063C13.9535 9.83382 13.9531 10.0666 13.9531 10.5313C13.9531 10.9959 13.9535 11.2287 13.915 11.4219L13.8799 11.5684C13.6788 12.2906 13.0873 12.8451 12.3438 12.9932L12.1885 13.0146C12.1321 13.0201 12.0704 13.024 12 13.0264L11.4531 13.0313H8.95313L8.40625 13.0264C8.3359 13.024 8.27411 13.0201 8.21777 13.0146L8.0625 12.9932C7.31895 12.8451 6.72747 12.2906 6.52637 11.5684L6.49121 11.4219C6.47437 11.3372 6.46618 11.2449 6.46094 11.1289C6.13101 11.1282 5.84938 11.1264 5.60938 11.1094C5.28663 11.0864 4.99279 11.0372 4.71387 10.916C4.10975 10.6535 3.62771 10.1715 3.36523 9.56738C3.2441 9.28846 3.19484 8.99462 3.17188 8.67188C3.14935 8.35501 3.15039 7.96561 3.15039 7.48828V5H2.5L1.95313 4.99512C1.88277 4.99271 1.82098 4.98883 1.76465 4.9834L1.60938 4.96191C0.865825 4.81387 0.274344 4.25933 0.0732423 3.53711L0.038086 3.39063C-0.000343371 3.19743 1.05958e-07 2.96466 1.05958e-07 2.5C1.05899e-07 2.03534 -0.000343394 1.80257 0.038086 1.60938C0.195992 0.816288 0.816288 0.195992 1.60938 0.038086C1.80257 -0.000343394 2.03534 1.05899e-07 2.5 1.05958e-07H5ZM8.95313 9.23145C8.43095 9.23145 8.34493 9.23751 8.29688 9.24707C7.97973 9.31026 7.73214 9.55786 7.66895 9.875C7.65939 9.92306 7.65332 10.0091 7.65332 10.5313C7.65332 11.0534 7.65939 11.1394 7.66895 11.1875C7.73214 11.5046 7.97973 11.7522 8.29688 11.8154C8.34493 11.825 8.43095 11.8311 8.95313 11.8311H11.4531C11.9753 11.8311 12.0613 11.825 12.1094 11.8154C12.4265 11.7522 12.6741 11.5046 12.7373 11.1875C12.7469 11.1394 12.7529 11.0534 12.7529 10.5313C12.7529 10.0091 12.7469 9.92306 12.7373 9.875C12.6741 9.55786 12.4265 9.31026 12.1094 9.24707C12.0613 9.23751 11.9753 9.23145 11.4531 9.23145H8.95313ZM2.5 1.2002C1.97783 1.2002 1.89181 1.20626 1.84375 1.21582C1.52661 1.27901 1.27901 1.52661 1.21582 1.84375C1.20626 1.89181 1.2002 1.97783 1.2002 2.5C1.2002 3.02217 1.20626 3.10819 1.21582 3.15625C1.27901 3.47339 1.52661 3.72099 1.84375 3.78418C1.89181 3.79374 1.97783 3.7998 2.5 3.7998H5C5.52217 3.7998 5.60819 3.79374 5.65625 3.78418C5.97339 3.72099 6.22099 3.47339 6.28418 3.15625C6.29374 3.10819 6.2998 3.02217 6.2998 2.5C6.2998 1.97783 6.29374 1.89181 6.28418 1.84375C6.22099 1.52661 5.97339 1.27901 5.65625 1.21582C5.60819 1.20626 5.52217 1.2002 5 1.2002H2.5Z" fill="var(--fill-0, #000001)"/>
</svg>
